<mxfile host="app.diagrams.net" modified="2022-10-18T06:37:08.029Z" agent="5.0 (Macintosh; Intel Mac OS X 10_15_7) AppleWebKit/537.36 (KHTML, like Gecko) Chrome/106.0.0.0 Safari/537.36" etag="MdZr7o3axUlU6oev-13U" version="20.4.1" type="github" pages="9">
  <diagram id="C5RBs43oDa-KdzZeNtuy" name="首页">
    <mxGraphModel dx="1298" dy="834" grid="1" gridSize="10" guides="1" tooltips="1" connect="1" arrows="1" fold="1" page="1" pageScale="1" pageWidth="827" pageHeight="1169" math="0" shadow="0">
      <root>
        <mxCell id="WIyWlLk6GJQsqaUBKTNV-0" />
        <mxCell id="WIyWlLk6GJQsqaUBKTNV-1" parent="WIyWlLk6GJQsqaUBKTNV-0" />
        <mxCell id="HV9Sme8KzqDoX2qMjPiU-1" value="" style="shape=cylinder3;whiteSpace=wrap;html=1;boundedLbl=1;backgroundOutline=1;size=15;fillColor=#FC9900;" parent="WIyWlLk6GJQsqaUBKTNV-1" vertex="1">
          <mxGeometry x="110" y="150" width="50" height="70" as="geometry" />
        </mxCell>
        <mxCell id="HV9Sme8KzqDoX2qMjPiU-2" value="" style="rounded=0;whiteSpace=wrap;html=1;strokeWidth=1.5;fillColor=#FC9900;" parent="WIyWlLk6GJQsqaUBKTNV-1" vertex="1">
          <mxGeometry x="230" y="150" width="320" height="60" as="geometry" />
        </mxCell>
        <mxCell id="HV9Sme8KzqDoX2qMjPiU-4" value="Category A" style="text;html=1;align=center;verticalAlign=middle;resizable=0;points=[];autosize=1;strokeColor=none;fillColor=none;" parent="WIyWlLk6GJQsqaUBKTNV-1" vertex="1">
          <mxGeometry x="20" y="170" width="80" height="30" as="geometry" />
        </mxCell>
        <mxCell id="HV9Sme8KzqDoX2qMjPiU-5" value="Bridge Adapter" style="rounded=0;whiteSpace=wrap;html=1;strokeWidth=1.5;fillColor=#F9CA9C;" parent="WIyWlLk6GJQsqaUBKTNV-1" vertex="1">
          <mxGeometry x="250" y="160" width="80" height="40" as="geometry" />
        </mxCell>
        <mxCell id="HV9Sme8KzqDoX2qMjPiU-6" value="accessPoint" style="rounded=0;whiteSpace=wrap;html=1;strokeWidth=1.5;fillColor=#F9CA9C;" parent="WIyWlLk6GJQsqaUBKTNV-1" vertex="1">
          <mxGeometry x="350" y="160" width="80" height="40" as="geometry" />
        </mxCell>
        <mxCell id="HV9Sme8KzqDoX2qMjPiU-7" value="compliance" style="rounded=0;whiteSpace=wrap;html=1;strokeWidth=1.5;fillColor=#F9CA9C;" parent="WIyWlLk6GJQsqaUBKTNV-1" vertex="1">
          <mxGeometry x="450" y="160" width="80" height="40" as="geometry" />
        </mxCell>
        <mxCell id="HV9Sme8KzqDoX2qMjPiU-8" value="" style="rounded=0;whiteSpace=wrap;html=1;strokeWidth=1.5;fillColor=#FC9900;" parent="WIyWlLk6GJQsqaUBKTNV-1" vertex="1">
          <mxGeometry x="640" y="150" width="80" height="60" as="geometry" />
        </mxCell>
        <mxCell id="HV9Sme8KzqDoX2qMjPiU-9" value="Mini App" style="text;html=1;align=center;verticalAlign=middle;resizable=0;points=[];autosize=1;strokeColor=none;fillColor=none;" parent="WIyWlLk6GJQsqaUBKTNV-1" vertex="1">
          <mxGeometry x="640" y="105" width="70" height="30" as="geometry" />
        </mxCell>
        <mxCell id="HV9Sme8KzqDoX2qMjPiU-11" value="ESApp&lt;br&gt;（AccessPoint manage category&#39;s display)" style="text;html=1;align=center;verticalAlign=middle;resizable=0;points=[];autosize=1;strokeColor=none;fillColor=none;" parent="WIyWlLk6GJQsqaUBKTNV-1" vertex="1">
          <mxGeometry x="847" y="150" width="250" height="40" as="geometry" />
        </mxCell>
        <mxCell id="HV9Sme8KzqDoX2qMjPiU-13" value="Category Config &amp;amp; Publish" style="text;html=1;align=center;verticalAlign=middle;resizable=0;points=[];autosize=1;strokeColor=none;fillColor=none;" parent="WIyWlLk6GJQsqaUBKTNV-1" vertex="1">
          <mxGeometry x="310" y="105" width="160" height="30" as="geometry" />
        </mxCell>
        <mxCell id="HV9Sme8KzqDoX2qMjPiU-14" value="" style="endArrow=classic;html=1;rounded=0;strokeWidth=2;" parent="WIyWlLk6GJQsqaUBKTNV-1" edge="1">
          <mxGeometry width="50" height="50" relative="1" as="geometry">
            <mxPoint x="170" y="185" as="sourcePoint" />
            <mxPoint x="220" y="184.5" as="targetPoint" />
          </mxGeometry>
        </mxCell>
        <mxCell id="HV9Sme8KzqDoX2qMjPiU-15" value="" style="endArrow=classic;html=1;rounded=0;strokeWidth=2;" parent="WIyWlLk6GJQsqaUBKTNV-1" edge="1">
          <mxGeometry width="50" height="50" relative="1" as="geometry">
            <mxPoint x="570" y="180" as="sourcePoint" />
            <mxPoint x="620" y="179.5" as="targetPoint" />
          </mxGeometry>
        </mxCell>
        <mxCell id="HV9Sme8KzqDoX2qMjPiU-16" value="" style="shape=cylinder3;whiteSpace=wrap;html=1;boundedLbl=1;backgroundOutline=1;size=15;fillColor=#049D0E;" parent="WIyWlLk6GJQsqaUBKTNV-1" vertex="1">
          <mxGeometry x="110" y="260" width="50" height="70" as="geometry" />
        </mxCell>
        <mxCell id="HV9Sme8KzqDoX2qMjPiU-17" value="" style="rounded=0;whiteSpace=wrap;html=1;strokeWidth=1.5;fillColor=#049D0E;" parent="WIyWlLk6GJQsqaUBKTNV-1" vertex="1">
          <mxGeometry x="230" y="260" width="320" height="60" as="geometry" />
        </mxCell>
        <mxCell id="HV9Sme8KzqDoX2qMjPiU-18" value="Category B" style="text;html=1;align=center;verticalAlign=middle;resizable=0;points=[];autosize=1;strokeColor=none;fillColor=none;" parent="WIyWlLk6GJQsqaUBKTNV-1" vertex="1">
          <mxGeometry x="20" y="280" width="80" height="30" as="geometry" />
        </mxCell>
        <mxCell id="HV9Sme8KzqDoX2qMjPiU-19" value="Bridge Adapter" style="rounded=0;whiteSpace=wrap;html=1;strokeWidth=1.5;fillColor=#B7D9A9;" parent="WIyWlLk6GJQsqaUBKTNV-1" vertex="1">
          <mxGeometry x="250" y="270" width="80" height="40" as="geometry" />
        </mxCell>
        <mxCell id="HV9Sme8KzqDoX2qMjPiU-20" value="accessPoint" style="rounded=0;whiteSpace=wrap;html=1;strokeWidth=1.5;fillColor=#B7D9A9;" parent="WIyWlLk6GJQsqaUBKTNV-1" vertex="1">
          <mxGeometry x="350" y="270" width="80" height="40" as="geometry" />
        </mxCell>
        <mxCell id="HV9Sme8KzqDoX2qMjPiU-21" value="compliance" style="rounded=0;whiteSpace=wrap;html=1;strokeWidth=1.5;fillColor=#B7D9A9;" parent="WIyWlLk6GJQsqaUBKTNV-1" vertex="1">
          <mxGeometry x="450" y="270" width="80" height="40" as="geometry" />
        </mxCell>
        <mxCell id="HV9Sme8KzqDoX2qMjPiU-22" value="" style="rounded=0;whiteSpace=wrap;html=1;strokeWidth=1.5;fillColor=#049D0E;" parent="WIyWlLk6GJQsqaUBKTNV-1" vertex="1">
          <mxGeometry x="640" y="260" width="80" height="60" as="geometry" />
        </mxCell>
        <mxCell id="HV9Sme8KzqDoX2qMjPiU-23" value="" style="endArrow=classic;html=1;rounded=0;strokeWidth=2;" parent="WIyWlLk6GJQsqaUBKTNV-1" edge="1">
          <mxGeometry width="50" height="50" relative="1" as="geometry">
            <mxPoint x="170" y="295" as="sourcePoint" />
            <mxPoint x="220" y="294.5" as="targetPoint" />
          </mxGeometry>
        </mxCell>
        <mxCell id="HV9Sme8KzqDoX2qMjPiU-24" value="" style="endArrow=classic;html=1;rounded=0;strokeWidth=2;" parent="WIyWlLk6GJQsqaUBKTNV-1" edge="1">
          <mxGeometry width="50" height="50" relative="1" as="geometry">
            <mxPoint x="570" y="290" as="sourcePoint" />
            <mxPoint x="620" y="289.5" as="targetPoint" />
          </mxGeometry>
        </mxCell>
        <mxCell id="HV9Sme8KzqDoX2qMjPiU-25" value="" style="shape=cylinder3;whiteSpace=wrap;html=1;boundedLbl=1;backgroundOutline=1;size=15;fillColor=#9B01FF;" parent="WIyWlLk6GJQsqaUBKTNV-1" vertex="1">
          <mxGeometry x="110" y="370" width="50" height="70" as="geometry" />
        </mxCell>
        <mxCell id="HV9Sme8KzqDoX2qMjPiU-26" value="" style="rounded=0;whiteSpace=wrap;html=1;strokeWidth=1.5;fillColor=#9B01FF;" parent="WIyWlLk6GJQsqaUBKTNV-1" vertex="1">
          <mxGeometry x="230" y="370" width="320" height="60" as="geometry" />
        </mxCell>
        <mxCell id="HV9Sme8KzqDoX2qMjPiU-27" value="Category C" style="text;html=1;align=center;verticalAlign=middle;resizable=0;points=[];autosize=1;strokeColor=none;fillColor=none;" parent="WIyWlLk6GJQsqaUBKTNV-1" vertex="1">
          <mxGeometry x="20" y="390" width="80" height="30" as="geometry" />
        </mxCell>
        <mxCell id="HV9Sme8KzqDoX2qMjPiU-28" value="Bridge Adapter" style="rounded=0;whiteSpace=wrap;html=1;strokeWidth=1.5;fillColor=#B3A7D4;" parent="WIyWlLk6GJQsqaUBKTNV-1" vertex="1">
          <mxGeometry x="250" y="380" width="80" height="40" as="geometry" />
        </mxCell>
        <mxCell id="HV9Sme8KzqDoX2qMjPiU-29" value="accessPoint" style="rounded=0;whiteSpace=wrap;html=1;strokeWidth=1.5;fillColor=#B3A7D4;" parent="WIyWlLk6GJQsqaUBKTNV-1" vertex="1">
          <mxGeometry x="350" y="380" width="80" height="40" as="geometry" />
        </mxCell>
        <mxCell id="HV9Sme8KzqDoX2qMjPiU-30" value="compliance" style="rounded=0;whiteSpace=wrap;html=1;strokeWidth=1.5;fillColor=#B3A7D4;" parent="WIyWlLk6GJQsqaUBKTNV-1" vertex="1">
          <mxGeometry x="450" y="380" width="80" height="40" as="geometry" />
        </mxCell>
        <mxCell id="HV9Sme8KzqDoX2qMjPiU-31" value="" style="rounded=0;whiteSpace=wrap;html=1;strokeWidth=1.5;fillColor=#9B01FF;" parent="WIyWlLk6GJQsqaUBKTNV-1" vertex="1">
          <mxGeometry x="640" y="370" width="80" height="60" as="geometry" />
        </mxCell>
        <mxCell id="HV9Sme8KzqDoX2qMjPiU-32" value="" style="endArrow=classic;html=1;rounded=0;strokeWidth=2;" parent="WIyWlLk6GJQsqaUBKTNV-1" edge="1">
          <mxGeometry width="50" height="50" relative="1" as="geometry">
            <mxPoint x="170" y="405" as="sourcePoint" />
            <mxPoint x="220" y="404.5" as="targetPoint" />
          </mxGeometry>
        </mxCell>
        <mxCell id="HV9Sme8KzqDoX2qMjPiU-33" value="" style="endArrow=classic;html=1;rounded=0;strokeWidth=2;" parent="WIyWlLk6GJQsqaUBKTNV-1" edge="1">
          <mxGeometry width="50" height="50" relative="1" as="geometry">
            <mxPoint x="570" y="400" as="sourcePoint" />
            <mxPoint x="620" y="399.5" as="targetPoint" />
          </mxGeometry>
        </mxCell>
        <mxCell id="HV9Sme8KzqDoX2qMjPiU-36" value="" style="endArrow=classic;html=1;rounded=0;strokeWidth=2;fontColor=#FFFFFF;" parent="WIyWlLk6GJQsqaUBKTNV-1" edge="1">
          <mxGeometry width="50" height="50" relative="1" as="geometry">
            <mxPoint x="750" y="180" as="sourcePoint" />
            <mxPoint x="810" y="220" as="targetPoint" />
          </mxGeometry>
        </mxCell>
        <mxCell id="HV9Sme8KzqDoX2qMjPiU-37" value="" style="endArrow=classic;html=1;rounded=0;strokeWidth=2;fontColor=#FFFFFF;" parent="WIyWlLk6GJQsqaUBKTNV-1" edge="1">
          <mxGeometry width="50" height="50" relative="1" as="geometry">
            <mxPoint x="750" y="291.5" as="sourcePoint" />
            <mxPoint x="810" y="291.5" as="targetPoint" />
          </mxGeometry>
        </mxCell>
        <mxCell id="HV9Sme8KzqDoX2qMjPiU-38" value="" style="endArrow=classic;html=1;rounded=0;strokeWidth=2;fontColor=#FFFFFF;" parent="WIyWlLk6GJQsqaUBKTNV-1" edge="1">
          <mxGeometry width="50" height="50" relative="1" as="geometry">
            <mxPoint x="750" y="400" as="sourcePoint" />
            <mxPoint x="810" y="350" as="targetPoint" />
          </mxGeometry>
        </mxCell>
        <mxCell id="HV9Sme8KzqDoX2qMjPiU-39" value="Access Category" style="text;html=1;align=center;verticalAlign=middle;resizable=0;points=[];autosize=1;strokeColor=none;fillColor=none;fontColor=#000000;" parent="WIyWlLk6GJQsqaUBKTNV-1" vertex="1">
          <mxGeometry x="60" y="105" width="110" height="30" as="geometry" />
        </mxCell>
        <mxCell id="Xn7Jv_vI8-y_UEmYnpKX-3" value="" style="group" parent="WIyWlLk6GJQsqaUBKTNV-1" vertex="1" connectable="0">
          <mxGeometry x="847" y="210" width="263" height="150" as="geometry" />
        </mxCell>
        <mxCell id="Xn7Jv_vI8-y_UEmYnpKX-0" value="" style="whiteSpace=wrap;html=1;rounded=0;shadow=0;glass=0;strokeColor=#000000;strokeWidth=1.5;fontColor=#000000;fillColor=none;gradientColor=none;" parent="Xn7Jv_vI8-y_UEmYnpKX-3" vertex="1">
          <mxGeometry width="263" height="150" as="geometry" />
        </mxCell>
        <mxCell id="HV9Sme8KzqDoX2qMjPiU-10" value="" style="whiteSpace=wrap;html=1;strokeWidth=1.5;" parent="Xn7Jv_vI8-y_UEmYnpKX-3" vertex="1">
          <mxGeometry x="23" y="20" width="210" height="110" as="geometry" />
        </mxCell>
        <mxCell id="HV9Sme8KzqDoX2qMjPiU-12" value="" style="rounded=0;whiteSpace=wrap;html=1;strokeWidth=1.5;fillColor=#FC9900;" parent="Xn7Jv_vI8-y_UEmYnpKX-3" vertex="1">
          <mxGeometry x="33" y="30" width="50" height="40" as="geometry" />
        </mxCell>
        <mxCell id="HV9Sme8KzqDoX2qMjPiU-34" value="" style="rounded=0;whiteSpace=wrap;html=1;strokeWidth=1.5;fillColor=#049D0E;" parent="Xn7Jv_vI8-y_UEmYnpKX-3" vertex="1">
          <mxGeometry x="103" y="30" width="50" height="40" as="geometry" />
        </mxCell>
        <mxCell id="HV9Sme8KzqDoX2qMjPiU-35" value="" style="rounded=0;whiteSpace=wrap;html=1;strokeWidth=1.5;fillColor=#9B01FF;" parent="Xn7Jv_vI8-y_UEmYnpKX-3" vertex="1">
          <mxGeometry x="173" y="30" width="50" height="40" as="geometry" />
        </mxCell>
        <mxCell id="Xn7Jv_vI8-y_UEmYnpKX-1" value="stable" style="whiteSpace=wrap;html=1;rounded=0;shadow=0;glass=0;strokeColor=#000000;strokeWidth=1.5;fontColor=#000000;fillColor=none;gradientColor=none;" parent="Xn7Jv_vI8-y_UEmYnpKX-3" vertex="1">
          <mxGeometry x="33" y="90" width="80" height="30" as="geometry" />
        </mxCell>
        <mxCell id="Xn7Jv_vI8-y_UEmYnpKX-2" value="control" style="whiteSpace=wrap;html=1;rounded=0;shadow=0;glass=0;strokeColor=#000000;strokeWidth=1.5;fontColor=#000000;fillColor=none;gradientColor=none;" parent="Xn7Jv_vI8-y_UEmYnpKX-3" vertex="1">
          <mxGeometry x="133" y="90" width="80" height="30" as="geometry" />
        </mxCell>
      </root>
    </mxGraphModel>
  </diagram>
  <diagram id="iQkWHmByu0i23tVqcr8R" name="架构全景图">
    <mxGraphModel dx="1224" dy="1646" grid="1" gridSize="10" guides="1" tooltips="1" connect="1" arrows="1" fold="1" page="1" pageScale="1" pageWidth="827" pageHeight="1169" math="0" shadow="0">
      <root>
        <mxCell id="0" />
        <mxCell id="1" parent="0" />
        <mxCell id="cleegPz1RDXhunkTF0p8-2" value="" style="whiteSpace=wrap;html=1;rounded=0;shadow=0;glass=0;dashed=1;strokeColor=#99CCFF;strokeWidth=1.5;fontColor=#000000;fillColor=none;gradientColor=none;" vertex="1" parent="1">
          <mxGeometry x="330" y="98" width="420" height="50" as="geometry" />
        </mxCell>
        <mxCell id="DrM0dnxs3aiw_zaTAnNU-90" value="" style="whiteSpace=wrap;html=1;dashed=1;strokeColor=#6c8ebf;strokeWidth=1.5;fillColor=none;" vertex="1" parent="1">
          <mxGeometry x="120" y="-52.5" width="190" height="362.5" as="geometry" />
        </mxCell>
        <mxCell id="DrM0dnxs3aiw_zaTAnNU-68" value="" style="whiteSpace=wrap;html=1;strokeWidth=1.5;dashed=1;fillColor=none;strokeColor=#9999FF;" vertex="1" parent="1">
          <mxGeometry x="320" y="-52" width="440" height="362" as="geometry" />
        </mxCell>
        <mxCell id="DrM0dnxs3aiw_zaTAnNU-2" value="稳定区" style="text;html=1;align=center;verticalAlign=middle;resizable=0;points=[];autosize=1;strokeColor=#666666;fillColor=#f5f5f5;fontColor=#333333;" vertex="1" parent="1">
          <mxGeometry x="20" y="411" width="60" height="30" as="geometry" />
        </mxCell>
        <mxCell id="DrM0dnxs3aiw_zaTAnNU-9" value="迭代区" style="text;html=1;align=center;verticalAlign=middle;resizable=0;points=[];autosize=1;strokeColor=#6c8ebf;fillColor=#dae8fc;" vertex="1" parent="1">
          <mxGeometry x="30" y="108.5" width="60" height="30" as="geometry" />
        </mxCell>
        <mxCell id="DrM0dnxs3aiw_zaTAnNU-11" value="动态发布区" style="text;html=1;align=center;verticalAlign=middle;resizable=0;points=[];autosize=1;strokeColor=#82b366;fillColor=#d5e8d4;" vertex="1" parent="1">
          <mxGeometry x="800" y="133.5" width="80" height="30" as="geometry" />
        </mxCell>
        <mxCell id="DrM0dnxs3aiw_zaTAnNU-12" value="企业级 APP" style="whiteSpace=wrap;html=1;strokeWidth=1.5;fontColor=#000000;fillColor=#FFFFFF;fontStyle=1" vertex="1" parent="1">
          <mxGeometry x="120" y="-100" width="640" height="35" as="geometry" />
        </mxCell>
        <mxCell id="DrM0dnxs3aiw_zaTAnNU-14" value="小程序容器" style="whiteSpace=wrap;html=1;strokeWidth=1.5;fontColor=#000000;fillColor=#FFFFFF;" vertex="1" parent="1">
          <mxGeometry x="330" y="55" width="200" height="35" as="geometry" />
        </mxCell>
        <mxCell id="DrM0dnxs3aiw_zaTAnNU-17" value="bridge 兼容层" style="whiteSpace=wrap;html=1;strokeWidth=1.5;fillColor=#d5e8d4;strokeColor=#82b366;" vertex="1" parent="1">
          <mxGeometry x="330" y="208" width="420" height="35" as="geometry" />
        </mxCell>
        <mxCell id="DrM0dnxs3aiw_zaTAnNU-44" value="MiniApp" style="whiteSpace=wrap;html=1;strokeWidth=1.5;fillColor=#d5e8d4;strokeColor=#82b366;" vertex="1" parent="1">
          <mxGeometry x="330" y="10" width="420" height="35" as="geometry" />
        </mxCell>
        <mxCell id="DrM0dnxs3aiw_zaTAnNU-45" value="Android/iOS Bridge" style="whiteSpace=wrap;html=1;strokeWidth=1.5;fontColor=#000000;fillColor=#FFFFFF;" vertex="1" parent="1">
          <mxGeometry x="410" y="159" width="120" height="35" as="geometry" />
        </mxCell>
        <mxCell id="DrM0dnxs3aiw_zaTAnNU-53" value="合规管控层" style="whiteSpace=wrap;html=1;strokeWidth=1.5;fontColor=#000000;fillColor=#FFFFFF;" vertex="1" parent="1">
          <mxGeometry x="330" y="255" width="420" height="35" as="geometry" />
        </mxCell>
        <mxCell id="DrM0dnxs3aiw_zaTAnNU-55" value="小程序基建" style="whiteSpace=wrap;html=1;strokeWidth=1.5;fontColor=#000000;fillColor=#FFFFFF;" vertex="1" parent="1">
          <mxGeometry x="330" y="159" width="70" height="35" as="geometry" />
        </mxCell>
        <mxCell id="DrM0dnxs3aiw_zaTAnNU-61" value="出行产品" style="whiteSpace=wrap;html=1;strokeWidth=1.5;" vertex="1" parent="1">
          <mxGeometry x="130" y="-40" width="170" height="35" as="geometry" />
        </mxCell>
        <mxCell id="DrM0dnxs3aiw_zaTAnNU-62" value="机票" style="whiteSpace=wrap;html=1;strokeWidth=1.5;fontColor=#000000;fillColor=#FFFFFF;" vertex="1" parent="1">
          <mxGeometry x="330" y="-40" width="70" height="35" as="geometry" />
        </mxCell>
        <mxCell id="DrM0dnxs3aiw_zaTAnNU-63" value="酒店" style="whiteSpace=wrap;html=1;strokeWidth=1.5;fontColor=#000000;fillColor=#FFFFFF;" vertex="1" parent="1">
          <mxGeometry x="418" y="-40" width="70" height="35" as="geometry" />
        </mxCell>
        <mxCell id="DrM0dnxs3aiw_zaTAnNU-64" value="火车票" style="whiteSpace=wrap;html=1;strokeWidth=1.5;fontColor=#000000;fillColor=#FFFFFF;" vertex="1" parent="1">
          <mxGeometry x="505" y="-40" width="70" height="35" as="geometry" />
        </mxCell>
        <mxCell id="DrM0dnxs3aiw_zaTAnNU-65" value="两轮" style="whiteSpace=wrap;html=1;strokeWidth=1.5;fontColor=#000000;fillColor=#FFFFFF;" vertex="1" parent="1">
          <mxGeometry x="593" y="-40" width="70" height="35" as="geometry" />
        </mxCell>
        <mxCell id="DrM0dnxs3aiw_zaTAnNU-66" value="..." style="whiteSpace=wrap;html=1;strokeWidth=1.5;fontColor=#000000;fillColor=#FFFFFF;" vertex="1" parent="1">
          <mxGeometry x="680" y="-40" width="70" height="35" as="geometry" />
        </mxCell>
        <mxCell id="DrM0dnxs3aiw_zaTAnNU-71" value="出行业务" style="whiteSpace=wrap;html=1;strokeWidth=1.5;fillColor=#dae8fc;strokeColor=#6c8ebf;" vertex="1" parent="1">
          <mxGeometry x="131" y="9.5" width="170" height="280.5" as="geometry" />
        </mxCell>
        <mxCell id="DrM0dnxs3aiw_zaTAnNU-19" value="H5容器" style="whiteSpace=wrap;html=1;strokeWidth=1.5;fontColor=#000000;fillColor=#FFFFFF;" vertex="1" parent="1">
          <mxGeometry x="550" y="55" width="200" height="35" as="geometry" />
        </mxCell>
        <mxCell id="DrM0dnxs3aiw_zaTAnNU-78" value="生命周期" style="whiteSpace=wrap;html=1;strokeWidth=1.5;" vertex="1" parent="1">
          <mxGeometry x="340" y="108.5" width="85" height="30" as="geometry" />
        </mxCell>
        <mxCell id="DrM0dnxs3aiw_zaTAnNU-79" value="监控" style="whiteSpace=wrap;html=1;strokeWidth=1.5;" vertex="1" parent="1">
          <mxGeometry x="444" y="108.5" width="85" height="30" as="geometry" />
        </mxCell>
        <mxCell id="DrM0dnxs3aiw_zaTAnNU-87" value="样式配置" style="whiteSpace=wrap;html=1;strokeWidth=1.5;fillColor=#d5e8d4;strokeColor=#82b366;" vertex="1" parent="1">
          <mxGeometry x="549" y="108.5" width="85" height="30" as="geometry" />
        </mxCell>
        <mxCell id="DrM0dnxs3aiw_zaTAnNU-88" value="Native 组件" style="whiteSpace=wrap;html=1;strokeWidth=1.5;" vertex="1" parent="1">
          <mxGeometry x="653" y="108.5" width="85" height="30" as="geometry" />
        </mxCell>
        <mxCell id="DrM0dnxs3aiw_zaTAnNU-49" value="H5 基建" style="whiteSpace=wrap;html=1;strokeWidth=1.5;fontColor=#000000;fillColor=#FFFFFF;" vertex="1" parent="1">
          <mxGeometry x="550" y="159" width="60" height="35" as="geometry" />
        </mxCell>
        <mxCell id="DrM0dnxs3aiw_zaTAnNU-54" value="H5 &amp;amp;端通信" style="whiteSpace=wrap;html=1;strokeWidth=1.5;fontColor=#000000;fillColor=#FFFFFF;" vertex="1" parent="1">
          <mxGeometry x="620" y="159" width="130" height="35" as="geometry" />
        </mxCell>
        <mxCell id="RDaLQrKdzdeepaJyoWTo-7" value="" style="group" vertex="1" connectable="0" parent="1">
          <mxGeometry x="125" y="-310" width="630" height="91" as="geometry" />
        </mxCell>
        <mxCell id="mD3_I2vqqc2FoOGvvVUo-1" value="" style="whiteSpace=wrap;html=1;rounded=0;shadow=0;glass=0;strokeColor=#000000;strokeWidth=1.5;fontColor=#000000;fillColor=none;gradientColor=none;" vertex="1" parent="RDaLQrKdzdeepaJyoWTo-7">
          <mxGeometry y="1" width="630" height="90" as="geometry" />
        </mxCell>
        <mxCell id="RDaLQrKdzdeepaJyoWTo-1" value="版本控制" style="whiteSpace=wrap;html=1;rounded=0;shadow=0;glass=0;strokeColor=#000000;strokeWidth=1.5;fontColor=#000000;fillColor=none;gradientColor=none;" vertex="1" parent="RDaLQrKdzdeepaJyoWTo-7">
          <mxGeometry x="140" y="41" width="90" height="35" as="geometry" />
        </mxCell>
        <mxCell id="RDaLQrKdzdeepaJyoWTo-2" value="部署" style="whiteSpace=wrap;html=1;rounded=0;shadow=0;glass=0;strokeColor=#000000;strokeWidth=1.5;fontColor=#000000;fillColor=none;gradientColor=none;" vertex="1" parent="RDaLQrKdzdeepaJyoWTo-7">
          <mxGeometry x="10" y="41" width="90" height="35" as="geometry" />
        </mxCell>
        <mxCell id="RDaLQrKdzdeepaJyoWTo-3" value="降级" style="whiteSpace=wrap;html=1;rounded=0;shadow=0;glass=0;strokeColor=#000000;strokeWidth=1.5;fontColor=#000000;fillColor=none;gradientColor=none;" vertex="1" parent="RDaLQrKdzdeepaJyoWTo-7">
          <mxGeometry x="270" y="41" width="90" height="35" as="geometry" />
        </mxCell>
        <mxCell id="RDaLQrKdzdeepaJyoWTo-4" value="访问点配置" style="whiteSpace=wrap;html=1;rounded=0;shadow=0;glass=0;strokeColor=#000000;strokeWidth=1.5;fontColor=#000000;fillColor=none;gradientColor=none;" vertex="1" parent="RDaLQrKdzdeepaJyoWTo-7">
          <mxGeometry x="400" y="41" width="90" height="35" as="geometry" />
        </mxCell>
        <mxCell id="RDaLQrKdzdeepaJyoWTo-5" value="样式配置" style="whiteSpace=wrap;html=1;rounded=0;shadow=0;glass=0;strokeColor=#000000;strokeWidth=1.5;fontColor=#000000;fillColor=none;gradientColor=none;" vertex="1" parent="RDaLQrKdzdeepaJyoWTo-7">
          <mxGeometry x="530" y="41" width="90" height="35" as="geometry" />
        </mxCell>
        <mxCell id="RDaLQrKdzdeepaJyoWTo-6" value="服务" style="text;html=1;align=center;verticalAlign=middle;resizable=0;points=[];autosize=1;strokeColor=none;fillColor=none;fontColor=#000000;fontSize=15;fontStyle=1" vertex="1" parent="RDaLQrKdzdeepaJyoWTo-7">
          <mxGeometry x="1" width="50" height="30" as="geometry" />
        </mxCell>
        <mxCell id="RDaLQrKdzdeepaJyoWTo-8" value="" style="shape=singleArrow;whiteSpace=wrap;html=1;arrowWidth=0.4;arrowSize=0.4;rounded=0;shadow=0;glass=0;strokeColor=#000000;strokeWidth=1.5;fontSize=15;fontColor=#000000;fillColor=none;gradientColor=none;rotation=90;" vertex="1" parent="1">
          <mxGeometry x="400" y="-190" width="80" height="60" as="geometry" />
        </mxCell>
        <mxCell id="PPOu33n57ns8sHDbTrTV-35" value="" style="group" vertex="1" connectable="0" parent="1">
          <mxGeometry x="120" y="324" width="640" height="220" as="geometry" />
        </mxCell>
        <mxCell id="DrM0dnxs3aiw_zaTAnNU-1" value="" style="rounded=0;whiteSpace=wrap;html=1;strokeWidth=1.5;fontColor=#333333;fillColor=#f5f5f5;dashed=1;strokeColor=#666666;" vertex="1" parent="PPOu33n57ns8sHDbTrTV-35">
          <mxGeometry width="640" height="220" as="geometry" />
        </mxCell>
        <mxCell id="DrM0dnxs3aiw_zaTAnNU-3" value="基础能力层" style="whiteSpace=wrap;html=1;strokeWidth=1.5;fontColor=#000000;fillColor=#FFFFFF;fontSize=13;" vertex="1" parent="PPOu33n57ns8sHDbTrTV-35">
          <mxGeometry x="10" y="167.25" width="620" height="39.17" as="geometry" />
        </mxCell>
        <mxCell id="DrM0dnxs3aiw_zaTAnNU-4" value="业务组件" style="whiteSpace=wrap;html=1;strokeWidth=1.5;fontColor=#000000;fillColor=#FFFFFF;" vertex="1" parent="PPOu33n57ns8sHDbTrTV-35">
          <mxGeometry x="10" y="113.39999999999998" width="310" height="39.17" as="geometry" />
        </mxCell>
        <mxCell id="DrM0dnxs3aiw_zaTAnNU-5" value="公共 UI" style="whiteSpace=wrap;html=1;strokeWidth=1.5;fontColor=#000000;fillColor=#FFFFFF;" vertex="1" parent="PPOu33n57ns8sHDbTrTV-35">
          <mxGeometry x="330" y="113.39999999999998" width="300" height="39.17" as="geometry" />
        </mxCell>
        <mxCell id="DrM0dnxs3aiw_zaTAnNU-6" value="ES 标准 Bridge" style="whiteSpace=wrap;html=1;strokeWidth=1.5;fontColor=#000000;fillColor=#FFFFFF;" vertex="1" parent="PPOu33n57ns8sHDbTrTV-35">
          <mxGeometry x="10" y="59.54000000000002" width="620" height="39.17" as="geometry" />
        </mxCell>
        <mxCell id="DrM0dnxs3aiw_zaTAnNU-81" value="通信模块" style="whiteSpace=wrap;html=1;strokeWidth=1.5;fontColor=#000000;fillColor=#FFFFFF;" vertex="1" parent="PPOu33n57ns8sHDbTrTV-35">
          <mxGeometry x="10" y="10.579999999999984" width="620" height="39.17" as="geometry" />
        </mxCell>
        <mxCell id="PPOu33n57ns8sHDbTrTV-1" value="网络" style="whiteSpace=wrap;html=1;rounded=0;shadow=0;glass=0;strokeWidth=1.5;fontSize=13;strokeColor=#333333;" vertex="1" parent="PPOu33n57ns8sHDbTrTV-35">
          <mxGeometry x="19" y="174.42000000000002" width="60" height="25" as="geometry" />
        </mxCell>
        <mxCell id="PPOu33n57ns8sHDbTrTV-10" value="日志" style="whiteSpace=wrap;html=1;rounded=0;shadow=0;glass=0;strokeWidth=1.5;fontSize=13;strokeColor=#333333;" vertex="1" parent="PPOu33n57ns8sHDbTrTV-35">
          <mxGeometry x="86" y="174.42000000000002" width="60" height="25" as="geometry" />
        </mxCell>
        <mxCell id="PPOu33n57ns8sHDbTrTV-11" value="存储" style="whiteSpace=wrap;html=1;rounded=0;shadow=0;glass=0;strokeWidth=1.5;fontSize=13;strokeColor=#333333;" vertex="1" parent="PPOu33n57ns8sHDbTrTV-35">
          <mxGeometry x="154" y="174.33000000000004" width="60" height="25" as="geometry" />
        </mxCell>
        <mxCell id="PPOu33n57ns8sHDbTrTV-22" value="热修复" style="whiteSpace=wrap;html=1;rounded=0;shadow=0;glass=0;strokeWidth=1.5;fontSize=13;strokeColor=#333333;" vertex="1" parent="PPOu33n57ns8sHDbTrTV-35">
          <mxGeometry x="222" y="174.33000000000004" width="60" height="25" as="geometry" />
        </mxCell>
        <mxCell id="PPOu33n57ns8sHDbTrTV-23" value="Apollo" style="whiteSpace=wrap;html=1;rounded=0;shadow=0;glass=0;strokeWidth=1.5;fontSize=13;strokeColor=#333333;" vertex="1" parent="PPOu33n57ns8sHDbTrTV-35">
          <mxGeometry x="360" y="174.33000000000004" width="60" height="25" as="geometry" />
        </mxCell>
        <mxCell id="PPOu33n57ns8sHDbTrTV-24" value="Omega" style="whiteSpace=wrap;html=1;rounded=0;shadow=0;glass=0;strokeWidth=1.5;fontSize=13;strokeColor=#333333;" vertex="1" parent="PPOu33n57ns8sHDbTrTV-35">
          <mxGeometry x="428" y="174.42000000000002" width="60" height="25" as="geometry" />
        </mxCell>
        <mxCell id="PPOu33n57ns8sHDbTrTV-25" value="Router" style="whiteSpace=wrap;html=1;rounded=0;shadow=0;glass=0;strokeWidth=1.5;fontSize=13;strokeColor=#333333;" vertex="1" parent="PPOu33n57ns8sHDbTrTV-35">
          <mxGeometry x="496" y="174.42000000000002" width="60" height="25" as="geometry" />
        </mxCell>
        <mxCell id="PPOu33n57ns8sHDbTrTV-26" value="DB" style="whiteSpace=wrap;html=1;rounded=0;shadow=0;glass=0;strokeWidth=1.5;fontSize=13;strokeColor=#333333;" vertex="1" parent="PPOu33n57ns8sHDbTrTV-35">
          <mxGeometry x="564" y="174.42000000000007" width="60" height="25" as="geometry" />
        </mxCell>
        <mxCell id="PPOu33n57ns8sHDbTrTV-27" value="定位" style="whiteSpace=wrap;html=1;rounded=0;shadow=0;glass=0;strokeWidth=1.5;fontSize=13;strokeColor=#333333;" vertex="1" parent="PPOu33n57ns8sHDbTrTV-35">
          <mxGeometry x="19" y="120.49000000000001" width="51" height="25" as="geometry" />
        </mxCell>
        <mxCell id="PPOu33n57ns8sHDbTrTV-28" value="支付" style="whiteSpace=wrap;html=1;rounded=0;shadow=0;glass=0;strokeWidth=1.5;fontSize=13;strokeColor=#333333;" vertex="1" parent="PPOu33n57ns8sHDbTrTV-35">
          <mxGeometry x="79" y="120.49000000000001" width="51" height="25" as="geometry" />
        </mxCell>
        <mxCell id="PPOu33n57ns8sHDbTrTV-29" value="IM" style="whiteSpace=wrap;html=1;rounded=0;shadow=0;glass=0;strokeWidth=1.5;fontSize=13;strokeColor=#333333;" vertex="1" parent="PPOu33n57ns8sHDbTrTV-35">
          <mxGeometry x="200" y="120.49000000000001" width="51" height="25" as="geometry" />
        </mxCell>
        <mxCell id="PPOu33n57ns8sHDbTrTV-30" value="地图" style="whiteSpace=wrap;html=1;rounded=0;shadow=0;glass=0;strokeWidth=1.5;fontSize=13;strokeColor=#333333;" vertex="1" parent="PPOu33n57ns8sHDbTrTV-35">
          <mxGeometry x="260" y="120.49000000000001" width="51" height="25" as="geometry" />
        </mxCell>
        <mxCell id="PPOu33n57ns8sHDbTrTV-31" value="分享" style="whiteSpace=wrap;html=1;rounded=0;shadow=0;glass=0;strokeWidth=1.5;fontSize=13;strokeColor=#333333;" vertex="1" parent="PPOu33n57ns8sHDbTrTV-35">
          <mxGeometry x="340" y="120.49000000000001" width="51" height="25" as="geometry" />
        </mxCell>
        <mxCell id="PPOu33n57ns8sHDbTrTV-32" value="Dialog" style="whiteSpace=wrap;html=1;rounded=0;shadow=0;glass=0;strokeWidth=1.5;fontSize=13;strokeColor=#333333;" vertex="1" parent="PPOu33n57ns8sHDbTrTV-35">
          <mxGeometry x="399" y="120.49000000000001" width="51" height="25" as="geometry" />
        </mxCell>
        <mxCell id="PPOu33n57ns8sHDbTrTV-33" value="Toast" style="whiteSpace=wrap;html=1;rounded=0;shadow=0;glass=0;strokeWidth=1.5;fontSize=13;strokeColor=#333333;" vertex="1" parent="PPOu33n57ns8sHDbTrTV-35">
          <mxGeometry x="513" y="120.49000000000001" width="51" height="25" as="geometry" />
        </mxCell>
        <mxCell id="PPOu33n57ns8sHDbTrTV-34" value="Picker" style="whiteSpace=wrap;html=1;rounded=0;shadow=0;glass=0;strokeWidth=1.5;fontSize=13;strokeColor=#333333;" vertex="1" parent="PPOu33n57ns8sHDbTrTV-35">
          <mxGeometry x="573" y="120.49000000000001" width="51" height="25" as="geometry" />
        </mxCell>
      </root>
    </mxGraphModel>
  </diagram>
  <diagram id="29gTXbUEyKHjgqSMOfKb" name="衡量指标">
    <mxGraphModel dx="1933" dy="614" grid="1" gridSize="10" guides="1" tooltips="1" connect="1" arrows="1" fold="1" page="1" pageScale="1" pageWidth="827" pageHeight="1169" math="0" shadow="0">
      <root>
        <mxCell id="0" />
        <mxCell id="1" parent="0" />
        <mxCell id="BZiD5UY93OZFL0QF4A3x-39" value="" style="group;dashed=1;" parent="1" vertex="1" connectable="0">
          <mxGeometry x="100" y="110" width="220" height="400" as="geometry" />
        </mxCell>
        <mxCell id="BZiD5UY93OZFL0QF4A3x-7" value="" style="whiteSpace=wrap;html=1;rounded=0;shadow=0;glass=0;strokeColor=default;strokeWidth=1.5;fontSize=15;fontColor=#000000;fillColor=none;gradientColor=none;" parent="BZiD5UY93OZFL0QF4A3x-39" vertex="1">
          <mxGeometry width="220" height="400" as="geometry" />
        </mxCell>
        <mxCell id="BZiD5UY93OZFL0QF4A3x-11" value="bundle 下载成功率" style="whiteSpace=wrap;html=1;rounded=0;shadow=0;glass=0;strokeColor=#d79b00;strokeWidth=1.5;fontSize=15;fillColor=#ffe6cc;" parent="BZiD5UY93OZFL0QF4A3x-39" vertex="1">
          <mxGeometry x="37.5" y="60" width="145" height="35" as="geometry" />
        </mxCell>
        <mxCell id="BZiD5UY93OZFL0QF4A3x-12" value="bundle 下载时间" style="whiteSpace=wrap;html=1;rounded=0;shadow=0;glass=0;strokeColor=#d6b656;strokeWidth=1.5;fontSize=15;fillColor=#fff2cc;" parent="BZiD5UY93OZFL0QF4A3x-39" vertex="1">
          <mxGeometry x="37.5" y="130" width="145" height="35" as="geometry" />
        </mxCell>
        <mxCell id="BZiD5UY93OZFL0QF4A3x-13" value="资源加载成功率" style="whiteSpace=wrap;html=1;rounded=0;shadow=0;glass=0;strokeColor=#d79b00;strokeWidth=1.5;fontSize=15;fillColor=#ffe6cc;" parent="BZiD5UY93OZFL0QF4A3x-39" vertex="1">
          <mxGeometry x="42.5" y="230" width="145" height="35" as="geometry" />
        </mxCell>
        <mxCell id="BZiD5UY93OZFL0QF4A3x-14" value="接口请求成功率" style="whiteSpace=wrap;html=1;rounded=0;shadow=0;glass=0;strokeColor=#d79b00;strokeWidth=1.5;fontSize=15;fillColor=#ffe6cc;" parent="BZiD5UY93OZFL0QF4A3x-39" vertex="1">
          <mxGeometry x="42.5" y="340" width="145" height="35" as="geometry" />
        </mxCell>
        <mxCell id="BZiD5UY93OZFL0QF4A3x-15" value="资源加载时间" style="whiteSpace=wrap;html=1;rounded=0;shadow=0;glass=0;strokeColor=#d6b656;strokeWidth=1.5;fontSize=15;fillColor=#fff2cc;" parent="BZiD5UY93OZFL0QF4A3x-39" vertex="1">
          <mxGeometry x="42.5" y="285" width="145" height="35" as="geometry" />
        </mxCell>
        <mxCell id="BZiD5UY93OZFL0QF4A3x-1" value="" style="shape=singleArrow;whiteSpace=wrap;html=1;arrowWidth=0.3333333333333333;arrowSize=0.0467741935483871;rounded=0;shadow=0;glass=0;strokeColor=default;strokeWidth=1.5;fontSize=15;fontColor=#000000;fillColor=none;gradientColor=none;" parent="1" vertex="1">
          <mxGeometry x="90" y="565" width="810" height="20" as="geometry" />
        </mxCell>
        <mxCell id="BZiD5UY93OZFL0QF4A3x-2" value="下载链路" style="text;html=1;align=center;verticalAlign=middle;resizable=0;points=[];autosize=1;strokeColor=none;fillColor=none;fontSize=16;fontColor=#000000;" parent="1" vertex="1">
          <mxGeometry x="165" y="586" width="90" height="30" as="geometry" />
        </mxCell>
        <mxCell id="BZiD5UY93OZFL0QF4A3x-3" value="加载链路" style="text;html=1;align=center;verticalAlign=middle;resizable=0;points=[];autosize=1;strokeColor=none;fillColor=none;fontSize=16;fontColor=#000000;" parent="1" vertex="1">
          <mxGeometry x="425" y="586" width="90" height="30" as="geometry" />
        </mxCell>
        <mxCell id="BZiD5UY93OZFL0QF4A3x-4" value="使用链路" style="text;html=1;align=center;verticalAlign=middle;resizable=0;points=[];autosize=1;strokeColor=none;fillColor=none;fontSize=16;fontColor=#000000;" parent="1" vertex="1">
          <mxGeometry x="685" y="581" width="90" height="30" as="geometry" />
        </mxCell>
        <mxCell id="BZiD5UY93OZFL0QF4A3x-8" value="小程序" style="text;html=1;align=center;verticalAlign=middle;resizable=0;points=[];autosize=1;strokeColor=none;fillColor=none;fontSize=15;fontColor=#000000;" parent="1" vertex="1">
          <mxGeometry x="-5" y="215" width="70" height="30" as="geometry" />
        </mxCell>
        <mxCell id="BZiD5UY93OZFL0QF4A3x-9" value="H5" style="text;html=1;align=center;verticalAlign=middle;resizable=0;points=[];autosize=1;strokeColor=none;fillColor=none;fontSize=15;fontColor=#000000;" parent="1" vertex="1">
          <mxGeometry x="10" y="400" width="40" height="30" as="geometry" />
        </mxCell>
        <mxCell id="BZiD5UY93OZFL0QF4A3x-10" value="" style="endArrow=none;dashed=1;html=1;rounded=0;strokeWidth=2;fontSize=15;fontColor=#000000;" parent="1" edge="1">
          <mxGeometry width="50" height="50" relative="1" as="geometry">
            <mxPoint y="310" as="sourcePoint" />
            <mxPoint x="920" y="310" as="targetPoint" />
          </mxGeometry>
        </mxCell>
        <mxCell id="BZiD5UY93OZFL0QF4A3x-34" value="监控告警" style="whiteSpace=wrap;html=1;rounded=0;shadow=0;glass=0;strokeColor=#82b366;strokeWidth=1.5;fontSize=15;fillColor=#d5e8d4;" parent="1" vertex="1">
          <mxGeometry x="100" y="520" width="340" height="30" as="geometry" />
        </mxCell>
        <mxCell id="BZiD5UY93OZFL0QF4A3x-37" value="小程序降级" style="whiteSpace=wrap;html=1;rounded=0;shadow=0;glass=0;strokeColor=#d6b656;strokeWidth=1.5;fontSize=15;fillColor=#fff2cc;" parent="1" vertex="1">
          <mxGeometry x="470" y="520" width="370" height="30" as="geometry" />
        </mxCell>
        <mxCell id="BZiD5UY93OZFL0QF4A3x-40" value="" style="group" parent="1" vertex="1" connectable="0">
          <mxGeometry x="360" y="110" width="220" height="400" as="geometry" />
        </mxCell>
        <mxCell id="BZiD5UY93OZFL0QF4A3x-16" value="" style="whiteSpace=wrap;html=1;rounded=0;shadow=0;glass=0;strokeColor=default;strokeWidth=1.5;fontSize=15;fontColor=#000000;fillColor=none;gradientColor=none;" parent="BZiD5UY93OZFL0QF4A3x-40" vertex="1">
          <mxGeometry width="220" height="400" as="geometry" />
        </mxCell>
        <mxCell id="BZiD5UY93OZFL0QF4A3x-19" value="引擎初始化时间" style="whiteSpace=wrap;html=1;rounded=0;shadow=0;glass=0;strokeColor=#d6b656;strokeWidth=1.5;fontSize=15;fillColor=#fff2cc;" parent="BZiD5UY93OZFL0QF4A3x-40" vertex="1">
          <mxGeometry x="37.5" y="87" width="145" height="35" as="geometry" />
        </mxCell>
        <mxCell id="BZiD5UY93OZFL0QF4A3x-20" value="初始化成功率" style="whiteSpace=wrap;html=1;rounded=0;shadow=0;glass=0;strokeColor=#9673a6;strokeWidth=1.5;fontSize=15;fillColor=#e1d5e7;" parent="BZiD5UY93OZFL0QF4A3x-40" vertex="1">
          <mxGeometry x="37.5" y="28" width="145" height="35" as="geometry" />
        </mxCell>
        <mxCell id="BZiD5UY93OZFL0QF4A3x-21" value="容器加载成功率" style="whiteSpace=wrap;html=1;rounded=0;shadow=0;glass=0;strokeColor=#d79b00;strokeWidth=1.5;fontSize=15;fillColor=#ffe6cc;" parent="BZiD5UY93OZFL0QF4A3x-40" vertex="1">
          <mxGeometry x="37.5" y="235" width="145" height="35" as="geometry" />
        </mxCell>
        <mxCell id="BZiD5UY93OZFL0QF4A3x-22" value="容器加载时间" style="whiteSpace=wrap;html=1;rounded=0;shadow=0;glass=0;strokeColor=#d6b656;strokeWidth=1.5;fontSize=15;fillColor=#fff2cc;" parent="BZiD5UY93OZFL0QF4A3x-40" vertex="1">
          <mxGeometry x="37.5" y="290" width="145" height="35" as="geometry" />
        </mxCell>
        <mxCell id="BZiD5UY93OZFL0QF4A3x-23" value="crash 次数" style="whiteSpace=wrap;html=1;rounded=0;shadow=0;glass=0;strokeColor=#82b366;strokeWidth=1.5;fontSize=15;fillColor=#d5e8d4;" parent="BZiD5UY93OZFL0QF4A3x-40" vertex="1">
          <mxGeometry x="37.5" y="345" width="145" height="35" as="geometry" />
        </mxCell>
        <mxCell id="BZiD5UY93OZFL0QF4A3x-24" value="crash 次数" style="whiteSpace=wrap;html=1;rounded=0;shadow=0;glass=0;strokeColor=#82b366;strokeWidth=1.5;fontSize=15;fillColor=#d5e8d4;" parent="BZiD5UY93OZFL0QF4A3x-40" vertex="1">
          <mxGeometry x="37.5" y="145" width="145" height="35" as="geometry" />
        </mxCell>
        <mxCell id="BZiD5UY93OZFL0QF4A3x-43" value="质量" style="whiteSpace=wrap;html=1;rounded=0;shadow=0;glass=0;strokeColor=#82b366;strokeWidth=1.5;fontSize=15;fillColor=#d5e8d4;" parent="1" vertex="1">
          <mxGeometry x="930" y="220" width="100" height="40" as="geometry" />
        </mxCell>
        <mxCell id="BZiD5UY93OZFL0QF4A3x-44" value="性能" style="whiteSpace=wrap;html=1;rounded=0;shadow=0;glass=0;strokeColor=#d6b656;strokeWidth=1.5;fontSize=15;fillColor=#fff2cc;" parent="1" vertex="1">
          <mxGeometry x="930" y="300" width="100" height="40" as="geometry" />
        </mxCell>
        <mxCell id="BZiD5UY93OZFL0QF4A3x-45" value="关键指标" style="whiteSpace=wrap;html=1;rounded=0;shadow=0;glass=0;strokeColor=#d79b00;strokeWidth=1.5;fontSize=15;fillColor=#ffe6cc;" parent="1" vertex="1">
          <mxGeometry x="930" y="380" width="100" height="40" as="geometry" />
        </mxCell>
        <mxCell id="BZiD5UY93OZFL0QF4A3x-17" value="" style="whiteSpace=wrap;html=1;rounded=0;shadow=0;glass=0;strokeColor=default;strokeWidth=1.5;fontSize=15;fontColor=#000000;fillColor=none;gradientColor=none;" parent="1" vertex="1">
          <mxGeometry x="620" y="110" width="220" height="400" as="geometry" />
        </mxCell>
        <mxCell id="BZiD5UY93OZFL0QF4A3x-25" value="crash 次数" style="whiteSpace=wrap;html=1;rounded=0;shadow=0;glass=0;strokeColor=#82b366;strokeWidth=1.5;fontSize=15;fillColor=#d5e8d4;" parent="1" vertex="1">
          <mxGeometry x="657.5" y="145" width="145" height="35" as="geometry" />
        </mxCell>
        <mxCell id="BZiD5UY93OZFL0QF4A3x-27" value="卡顿" style="whiteSpace=wrap;html=1;rounded=0;shadow=0;glass=0;strokeColor=#d6b656;strokeWidth=1.5;fontSize=15;fillColor=#fff2cc;" parent="1" vertex="1">
          <mxGeometry x="657.5" y="260" width="145" height="35" as="geometry" />
        </mxCell>
        <mxCell id="BZiD5UY93OZFL0QF4A3x-28" value="JS 错误" style="whiteSpace=wrap;html=1;rounded=0;shadow=0;glass=0;strokeColor=#9673a6;strokeWidth=1.5;fontSize=15;fillColor=#e1d5e7;" parent="1" vertex="1">
          <mxGeometry x="657.5" y="330" width="145" height="35" as="geometry" />
        </mxCell>
        <mxCell id="BZiD5UY93OZFL0QF4A3x-30" value="白屏" style="whiteSpace=wrap;html=1;rounded=0;shadow=0;glass=0;strokeColor=#82b366;strokeWidth=1.5;fontSize=15;fillColor=#d5e8d4;" parent="1" vertex="1">
          <mxGeometry x="657.5" y="464" width="145" height="35" as="geometry" />
        </mxCell>
        <mxCell id="BZiD5UY93OZFL0QF4A3x-31" value="页面渲染时间" style="whiteSpace=wrap;html=1;rounded=0;shadow=0;glass=0;strokeColor=#d6b656;strokeWidth=1.5;fontSize=15;fillColor=#fff2cc;" parent="1" vertex="1">
          <mxGeometry x="657.5" y="375" width="145" height="35" as="geometry" />
        </mxCell>
        <mxCell id="BZiD5UY93OZFL0QF4A3x-32" value="业务异常" style="whiteSpace=wrap;html=1;rounded=0;shadow=0;glass=0;strokeColor=#d79b00;strokeWidth=1.5;fontSize=15;fillColor=#ffe6cc;" parent="1" vertex="1">
          <mxGeometry x="660" y="208" width="145" height="35" as="geometry" />
        </mxCell>
        <mxCell id="BZiD5UY93OZFL0QF4A3x-33" value="业务异常" style="whiteSpace=wrap;html=1;rounded=0;shadow=0;glass=0;strokeColor=#d79b00;strokeWidth=1.5;fontSize=15;fillColor=#ffe6cc;" parent="1" vertex="1">
          <mxGeometry x="657.5" y="420" width="145" height="35" as="geometry" />
        </mxCell>
      </root>
    </mxGraphModel>
  </diagram>
  <diagram id="ckPWnj7KSBa63ovLnE90" name="Mini App">
    <mxGraphModel dx="1224" dy="477" grid="1" gridSize="10" guides="1" tooltips="1" connect="1" arrows="1" fold="1" page="1" pageScale="1" pageWidth="827" pageHeight="1169" math="0" shadow="0">
      <root>
        <mxCell id="0" />
        <mxCell id="1" parent="0" />
        <mxCell id="2d-8_aYrDRAulyv83GWY-20" style="edgeStyle=orthogonalEdgeStyle;rounded=0;orthogonalLoop=1;jettySize=auto;html=1;strokeWidth=2;fontSize=13;fontColor=#000000;entryX=0;entryY=0.5;entryDx=0;entryDy=0;" edge="1" parent="1" source="2d-8_aYrDRAulyv83GWY-1" target="2d-8_aYrDRAulyv83GWY-15">
          <mxGeometry relative="1" as="geometry">
            <mxPoint x="440" y="413" as="targetPoint" />
          </mxGeometry>
        </mxCell>
        <mxCell id="2d-8_aYrDRAulyv83GWY-1" value="MiniApp Manager" style="swimlane;fontStyle=1;align=center;verticalAlign=top;childLayout=stackLayout;horizontal=1;startSize=26;horizontalStack=0;resizeParent=1;resizeParentMax=0;resizeLast=0;collapsible=1;marginBottom=0;rounded=0;shadow=0;glass=0;strokeColor=#333333;strokeWidth=1.5;fontSize=13;fontColor=#000000;fillColor=none;gradientColor=none;" vertex="1" parent="1">
          <mxGeometry x="140" y="370" width="160" height="86" as="geometry" />
        </mxCell>
        <mxCell id="2d-8_aYrDRAulyv83GWY-2" value="+ MiniApp List" style="text;strokeColor=none;fillColor=none;align=left;verticalAlign=top;spacingLeft=4;spacingRight=4;overflow=hidden;rotatable=0;points=[[0,0.5],[1,0.5]];portConstraint=eastwest;rounded=0;shadow=0;glass=0;strokeWidth=1.5;fontSize=13;fontColor=#000000;" vertex="1" parent="2d-8_aYrDRAulyv83GWY-1">
          <mxGeometry y="26" width="160" height="26" as="geometry" />
        </mxCell>
        <mxCell id="2d-8_aYrDRAulyv83GWY-3" value="" style="line;strokeWidth=1;fillColor=none;align=left;verticalAlign=middle;spacingTop=-1;spacingLeft=3;spacingRight=3;rotatable=0;labelPosition=right;points=[];portConstraint=eastwest;strokeColor=inherit;rounded=0;shadow=0;glass=0;fontSize=13;fontColor=#000000;" vertex="1" parent="2d-8_aYrDRAulyv83GWY-1">
          <mxGeometry y="52" width="160" height="8" as="geometry" />
        </mxCell>
        <mxCell id="2d-8_aYrDRAulyv83GWY-4" value="+ 品类管理" style="text;strokeColor=none;fillColor=none;align=left;verticalAlign=top;spacingLeft=4;spacingRight=4;overflow=hidden;rotatable=0;points=[[0,0.5],[1,0.5]];portConstraint=eastwest;rounded=0;shadow=0;glass=0;strokeWidth=1.5;fontSize=13;fontColor=#000000;" vertex="1" parent="2d-8_aYrDRAulyv83GWY-1">
          <mxGeometry y="60" width="160" height="26" as="geometry" />
        </mxCell>
        <mxCell id="2d-8_aYrDRAulyv83GWY-9" value="MiniApp" style="swimlane;fontStyle=0;childLayout=stackLayout;horizontal=1;startSize=26;fillColor=none;horizontalStack=0;resizeParent=1;resizeParentMax=0;resizeLast=0;collapsible=1;marginBottom=0;rounded=0;shadow=0;glass=0;strokeColor=#333333;strokeWidth=1.5;fontSize=13;fontColor=#000000;" vertex="1" parent="1">
          <mxGeometry x="450" y="324" width="140" height="206" as="geometry" />
        </mxCell>
        <mxCell id="2d-8_aYrDRAulyv83GWY-10" value="+ MiniApp Description" style="text;strokeColor=none;fillColor=none;align=left;verticalAlign=top;spacingLeft=4;spacingRight=4;overflow=hidden;rotatable=0;points=[[0,0.5],[1,0.5]];portConstraint=eastwest;rounded=0;shadow=0;glass=0;strokeWidth=1.5;fontSize=13;fontColor=#000000;" vertex="1" parent="2d-8_aYrDRAulyv83GWY-9">
          <mxGeometry y="26" width="140" height="24" as="geometry" />
        </mxCell>
        <mxCell id="2d-8_aYrDRAulyv83GWY-12" value="+ EntryList" style="text;strokeColor=none;fillColor=none;align=left;verticalAlign=top;spacingLeft=4;spacingRight=4;overflow=hidden;rotatable=0;points=[[0,0.5],[1,0.5]];portConstraint=eastwest;rounded=0;shadow=0;glass=0;strokeWidth=1.5;fontSize=13;fontColor=#000000;" vertex="1" parent="2d-8_aYrDRAulyv83GWY-9">
          <mxGeometry y="50" width="140" height="26" as="geometry" />
        </mxCell>
        <mxCell id="2d-8_aYrDRAulyv83GWY-15" value="+ AccessPoint List&#xa;" style="text;strokeColor=none;fillColor=none;align=left;verticalAlign=top;spacingLeft=4;spacingRight=4;overflow=hidden;rotatable=0;points=[[0,0.5],[1,0.5]];portConstraint=eastwest;rounded=0;shadow=0;glass=0;strokeWidth=1.5;fontSize=13;fontColor=#000000;" vertex="1" parent="2d-8_aYrDRAulyv83GWY-9">
          <mxGeometry y="76" width="140" height="26" as="geometry" />
        </mxCell>
        <mxCell id="2d-8_aYrDRAulyv83GWY-16" value="+ LaunchConfig" style="text;strokeColor=none;fillColor=none;align=left;verticalAlign=top;spacingLeft=4;spacingRight=4;overflow=hidden;rotatable=0;points=[[0,0.5],[1,0.5]];portConstraint=eastwest;rounded=0;shadow=0;glass=0;strokeWidth=1.5;fontSize=13;fontColor=#000000;" vertex="1" parent="2d-8_aYrDRAulyv83GWY-9">
          <mxGeometry y="102" width="140" height="26" as="geometry" />
        </mxCell>
        <mxCell id="2d-8_aYrDRAulyv83GWY-17" value="+ ComplianceConfig" style="text;strokeColor=none;fillColor=none;align=left;verticalAlign=top;spacingLeft=4;spacingRight=4;overflow=hidden;rotatable=0;points=[[0,0.5],[1,0.5]];portConstraint=eastwest;rounded=0;shadow=0;glass=0;strokeWidth=1.5;fontSize=13;fontColor=#000000;" vertex="1" parent="2d-8_aYrDRAulyv83GWY-9">
          <mxGeometry y="128" width="140" height="26" as="geometry" />
        </mxCell>
        <mxCell id="2d-8_aYrDRAulyv83GWY-18" value="+ Bridge Adapter" style="text;strokeColor=none;fillColor=none;align=left;verticalAlign=top;spacingLeft=4;spacingRight=4;overflow=hidden;rotatable=0;points=[[0,0.5],[1,0.5]];portConstraint=eastwest;rounded=0;shadow=0;glass=0;strokeWidth=1.5;fontSize=13;fontColor=#000000;" vertex="1" parent="2d-8_aYrDRAulyv83GWY-9">
          <mxGeometry y="154" width="140" height="26" as="geometry" />
        </mxCell>
        <mxCell id="2d-8_aYrDRAulyv83GWY-19" value="+ Degrade" style="text;strokeColor=none;fillColor=none;align=left;verticalAlign=top;spacingLeft=4;spacingRight=4;overflow=hidden;rotatable=0;points=[[0,0.5],[1,0.5]];portConstraint=eastwest;rounded=0;shadow=0;glass=0;strokeWidth=1.5;fontSize=13;fontColor=#000000;" vertex="1" parent="2d-8_aYrDRAulyv83GWY-9">
          <mxGeometry y="180" width="140" height="26" as="geometry" />
        </mxCell>
      </root>
    </mxGraphModel>
  </diagram>
  <diagram id="xy2k2cONVR7KYeI6kHLD" name="accessPoint">
    <mxGraphModel dx="1089" dy="614" grid="1" gridSize="10" guides="1" tooltips="1" connect="1" arrows="1" fold="1" page="1" pageScale="1" pageWidth="827" pageHeight="1169" math="0" shadow="0">
      <root>
        <mxCell id="0" />
        <mxCell id="1" parent="0" />
        <mxCell id="-tanxgxlAIrnPY7R4vTv-23" value="AccessPoint Pool" style="swimlane;fontStyle=1;align=center;verticalAlign=top;childLayout=stackLayout;horizontal=1;startSize=26;horizontalStack=0;resizeParent=1;resizeParentMax=0;resizeLast=0;collapsible=1;marginBottom=0;rounded=0;shadow=0;glass=0;strokeColor=#333333;strokeWidth=1.5;fontSize=13;fontColor=#000000;fillColor=none;gradientColor=none;" vertex="1" parent="1">
          <mxGeometry x="200" y="170" width="160" height="112" as="geometry" />
        </mxCell>
        <mxCell id="-tanxgxlAIrnPY7R4vTv-24" value="+ AcessPoint List" style="text;strokeColor=none;fillColor=none;align=left;verticalAlign=top;spacingLeft=4;spacingRight=4;overflow=hidden;rotatable=0;points=[[0,0.5],[1,0.5]];portConstraint=eastwest;rounded=0;shadow=0;glass=0;strokeWidth=1.5;fontSize=13;fontColor=#000000;" vertex="1" parent="-tanxgxlAIrnPY7R4vTv-23">
          <mxGeometry y="26" width="160" height="26" as="geometry" />
        </mxCell>
        <mxCell id="-tanxgxlAIrnPY7R4vTv-25" value="" style="line;strokeWidth=1;fillColor=none;align=left;verticalAlign=middle;spacingTop=-1;spacingLeft=3;spacingRight=3;rotatable=0;labelPosition=right;points=[];portConstraint=eastwest;strokeColor=inherit;rounded=0;shadow=0;glass=0;fontSize=13;fontColor=#000000;" vertex="1" parent="-tanxgxlAIrnPY7R4vTv-23">
          <mxGeometry y="52" width="160" height="8" as="geometry" />
        </mxCell>
        <mxCell id="-tanxgxlAIrnPY7R4vTv-26" value="+ getAccessByAccessId:" style="text;strokeColor=none;fillColor=none;align=left;verticalAlign=top;spacingLeft=4;spacingRight=4;overflow=hidden;rotatable=0;points=[[0,0.5],[1,0.5]];portConstraint=eastwest;rounded=0;shadow=0;glass=0;strokeWidth=1.5;fontSize=13;fontColor=#000000;" vertex="1" parent="-tanxgxlAIrnPY7R4vTv-23">
          <mxGeometry y="60" width="160" height="26" as="geometry" />
        </mxCell>
        <mxCell id="-tanxgxlAIrnPY7R4vTv-33" value="+ updateAccessById:" style="text;strokeColor=none;fillColor=none;align=left;verticalAlign=top;spacingLeft=4;spacingRight=4;overflow=hidden;rotatable=0;points=[[0,0.5],[1,0.5]];portConstraint=eastwest;rounded=0;shadow=0;glass=0;strokeWidth=1.5;fontSize=13;fontColor=#000000;" vertex="1" parent="-tanxgxlAIrnPY7R4vTv-23">
          <mxGeometry y="86" width="160" height="26" as="geometry" />
        </mxCell>
        <mxCell id="-tanxgxlAIrnPY7R4vTv-28" value="AccessPoint" style="swimlane;fontStyle=0;childLayout=stackLayout;horizontal=1;startSize=26;fillColor=none;horizontalStack=0;resizeParent=1;resizeParentMax=0;resizeLast=0;collapsible=1;marginBottom=0;rounded=0;shadow=0;glass=0;strokeColor=#333333;strokeWidth=1.5;fontSize=13;fontColor=#000000;" vertex="1" parent="1">
          <mxGeometry x="500" y="135" width="140" height="156" as="geometry" />
        </mxCell>
        <mxCell id="-tanxgxlAIrnPY7R4vTv-29" value="+ AccessId" style="text;strokeColor=none;fillColor=none;align=left;verticalAlign=top;spacingLeft=4;spacingRight=4;overflow=hidden;rotatable=0;points=[[0,0.5],[1,0.5]];portConstraint=eastwest;rounded=0;shadow=0;glass=0;strokeWidth=1.5;fontSize=13;fontColor=#000000;" vertex="1" parent="-tanxgxlAIrnPY7R4vTv-28">
          <mxGeometry y="26" width="140" height="26" as="geometry" />
        </mxCell>
        <mxCell id="-tanxgxlAIrnPY7R4vTv-34" value="+ Access Style" style="text;strokeColor=none;fillColor=none;align=left;verticalAlign=top;spacingLeft=4;spacingRight=4;overflow=hidden;rotatable=0;points=[[0,0.5],[1,0.5]];portConstraint=eastwest;rounded=0;shadow=0;glass=0;strokeWidth=1.5;fontSize=13;fontColor=#000000;" vertex="1" parent="-tanxgxlAIrnPY7R4vTv-28">
          <mxGeometry y="52" width="140" height="26" as="geometry" />
        </mxCell>
        <mxCell id="gClw7IKX3hqkDwoYB0ky-1" value="+ SortedIndex" style="text;strokeColor=none;fillColor=none;align=left;verticalAlign=top;spacingLeft=4;spacingRight=4;overflow=hidden;rotatable=0;points=[[0,0.5],[1,0.5]];portConstraint=eastwest;rounded=0;shadow=0;glass=0;strokeWidth=1.5;fontSize=13;fontColor=#000000;" vertex="1" parent="-tanxgxlAIrnPY7R4vTv-28">
          <mxGeometry y="78" width="140" height="26" as="geometry" />
        </mxCell>
        <mxCell id="-tanxgxlAIrnPY7R4vTv-30" value="+ AccessItems" style="text;strokeColor=none;fillColor=none;align=left;verticalAlign=top;spacingLeft=4;spacingRight=4;overflow=hidden;rotatable=0;points=[[0,0.5],[1,0.5]];portConstraint=eastwest;rounded=0;shadow=0;glass=0;strokeWidth=1.5;fontSize=13;fontColor=#000000;" vertex="1" parent="-tanxgxlAIrnPY7R4vTv-28">
          <mxGeometry y="104" width="140" height="26" as="geometry" />
        </mxCell>
        <mxCell id="-tanxgxlAIrnPY7R4vTv-31" value="+ didClickAccesItem" style="text;strokeColor=none;fillColor=none;align=left;verticalAlign=top;spacingLeft=4;spacingRight=4;overflow=hidden;rotatable=0;points=[[0,0.5],[1,0.5]];portConstraint=eastwest;rounded=0;shadow=0;glass=0;strokeWidth=1.5;fontSize=13;fontColor=#000000;" vertex="1" parent="-tanxgxlAIrnPY7R4vTv-28">
          <mxGeometry y="130" width="140" height="26" as="geometry" />
        </mxCell>
        <mxCell id="-tanxgxlAIrnPY7R4vTv-32" style="edgeStyle=orthogonalEdgeStyle;rounded=0;orthogonalLoop=1;jettySize=auto;html=1;entryX=0;entryY=0.5;entryDx=0;entryDy=0;strokeWidth=2;fontSize=13;fontColor=#000000;exitX=1;exitY=1.135;exitDx=0;exitDy=0;exitPerimeter=0;" edge="1" parent="1" source="-tanxgxlAIrnPY7R4vTv-24" target="gClw7IKX3hqkDwoYB0ky-1">
          <mxGeometry relative="1" as="geometry" />
        </mxCell>
      </root>
    </mxGraphModel>
  </diagram>
  <diagram id="bHBb6hmzmbqx0Bhdytb8" name="交互">
    <mxGraphModel dx="1106" dy="1783" grid="1" gridSize="10" guides="1" tooltips="1" connect="1" arrows="1" fold="1" page="1" pageScale="1" pageWidth="827" pageHeight="1169" math="0" shadow="0">
      <root>
        <mxCell id="0" />
        <mxCell id="1" parent="0" />
        <mxCell id="KLdrCbY5R_B38G-SL5DR-12" value="" style="group" parent="1" vertex="1" connectable="0">
          <mxGeometry x="100" y="100" width="240" height="360" as="geometry" />
        </mxCell>
        <mxCell id="KLdrCbY5R_B38G-SL5DR-1" value="" style="rounded=0;whiteSpace=wrap;html=1;shadow=0;glass=0;strokeColor=#333333;strokeWidth=1.5;fontSize=13;fontColor=#000000;fillColor=none;gradientColor=none;" parent="KLdrCbY5R_B38G-SL5DR-12" vertex="1">
          <mxGeometry width="240" height="360" as="geometry" />
        </mxCell>
        <mxCell id="KLdrCbY5R_B38G-SL5DR-2" value="App 页面" style="text;html=1;align=center;verticalAlign=middle;resizable=0;points=[];autosize=1;strokeColor=none;fillColor=none;fontSize=13;fontColor=#000000;" parent="KLdrCbY5R_B38G-SL5DR-12" vertex="1">
          <mxGeometry x="80" y="10" width="80" height="30" as="geometry" />
        </mxCell>
        <mxCell id="KLdrCbY5R_B38G-SL5DR-3" value="Block" style="whiteSpace=wrap;html=1;rounded=0;shadow=0;glass=0;strokeColor=#9673a6;strokeWidth=1.5;fontSize=13;fillColor=#e1d5e7;" parent="KLdrCbY5R_B38G-SL5DR-12" vertex="1">
          <mxGeometry x="20" y="46" width="200" height="60" as="geometry" />
        </mxCell>
        <mxCell id="KLdrCbY5R_B38G-SL5DR-4" value="Block" style="whiteSpace=wrap;html=1;rounded=0;shadow=0;glass=0;strokeColor=#6c8ebf;strokeWidth=1.5;fontSize=13;fillColor=#dae8fc;" parent="KLdrCbY5R_B38G-SL5DR-12" vertex="1">
          <mxGeometry x="30" y="117" width="200" height="60" as="geometry" />
        </mxCell>
        <mxCell id="KLdrCbY5R_B38G-SL5DR-6" value="Block" style="whiteSpace=wrap;html=1;rounded=0;shadow=0;glass=0;strokeColor=#d6b656;strokeWidth=1.5;fontSize=13;fillColor=#fff2cc;" parent="KLdrCbY5R_B38G-SL5DR-12" vertex="1">
          <mxGeometry x="30" y="270" width="200" height="60" as="geometry" />
        </mxCell>
        <mxCell id="KLdrCbY5R_B38G-SL5DR-7" value="..." style="text;html=1;align=center;verticalAlign=middle;resizable=0;points=[];autosize=1;strokeColor=none;fillColor=none;fontSize=13;fontColor=#000000;" parent="KLdrCbY5R_B38G-SL5DR-12" vertex="1">
          <mxGeometry x="105" y="320" width="30" height="30" as="geometry" />
        </mxCell>
        <mxCell id="KLdrCbY5R_B38G-SL5DR-15" value="" style="group" parent="KLdrCbY5R_B38G-SL5DR-12" vertex="1" connectable="0">
          <mxGeometry x="20" y="186" width="200" height="74" as="geometry" />
        </mxCell>
        <mxCell id="KLdrCbY5R_B38G-SL5DR-11" value="" style="group;fillColor=#d5e8d4;strokeColor=#82b366;container=0;" parent="KLdrCbY5R_B38G-SL5DR-15" vertex="1" connectable="0">
          <mxGeometry y="4" width="200" height="70" as="geometry" />
        </mxCell>
        <mxCell id="KLdrCbY5R_B38G-SL5DR-8" value="" style="whiteSpace=wrap;html=1;rounded=0;shadow=0;glass=0;strokeColor=#2D7600;strokeWidth=1.5;fontSize=13;fillColor=#60a917;fontColor=#ffffff;" parent="KLdrCbY5R_B38G-SL5DR-15" vertex="1">
          <mxGeometry x="10" y="26" width="50" height="42" as="geometry" />
        </mxCell>
        <mxCell id="KLdrCbY5R_B38G-SL5DR-9" value="" style="whiteSpace=wrap;html=1;rounded=0;shadow=0;glass=0;strokeColor=#2D7600;strokeWidth=1.5;fontSize=13;fillColor=#60a917;fontColor=#ffffff;" parent="KLdrCbY5R_B38G-SL5DR-15" vertex="1">
          <mxGeometry x="75" y="26" width="50" height="42" as="geometry" />
        </mxCell>
        <mxCell id="KLdrCbY5R_B38G-SL5DR-10" value="" style="whiteSpace=wrap;html=1;rounded=0;shadow=0;glass=0;strokeColor=#2D7600;strokeWidth=1.5;fontSize=13;fillColor=#60a917;fontColor=#ffffff;" parent="KLdrCbY5R_B38G-SL5DR-15" vertex="1">
          <mxGeometry x="140" y="26" width="50" height="42" as="geometry" />
        </mxCell>
        <mxCell id="KLdrCbY5R_B38G-SL5DR-14" value="AccessPoint" style="text;html=1;align=center;verticalAlign=middle;resizable=0;points=[];autosize=1;strokeColor=none;fillColor=none;fontSize=13;fontColor=#000000;" parent="KLdrCbY5R_B38G-SL5DR-15" vertex="1">
          <mxGeometry x="50" width="100" height="30" as="geometry" />
        </mxCell>
        <mxCell id="KLdrCbY5R_B38G-SL5DR-23" style="edgeStyle=orthogonalEdgeStyle;rounded=0;orthogonalLoop=1;jettySize=auto;html=1;entryX=-0.008;entryY=0.342;entryDx=0;entryDy=0;entryPerimeter=0;strokeWidth=2;fontSize=13;fontColor=#000000;strokeColor=#9B01FF;" parent="1" source="KLdrCbY5R_B38G-SL5DR-10" target="KLdrCbY5R_B38G-SL5DR-16" edge="1">
          <mxGeometry relative="1" as="geometry" />
        </mxCell>
        <mxCell id="KLdrCbY5R_B38G-SL5DR-24" value="" style="group" parent="1" vertex="1" connectable="0">
          <mxGeometry x="550" y="100" width="240" height="360" as="geometry" />
        </mxCell>
        <mxCell id="KLdrCbY5R_B38G-SL5DR-16" value="" style="whiteSpace=wrap;html=1;rounded=0;shadow=0;glass=0;strokeColor=#333333;strokeWidth=1.5;fontSize=13;fontColor=#000000;fillColor=none;gradientColor=none;" parent="KLdrCbY5R_B38G-SL5DR-24" vertex="1">
          <mxGeometry width="240" height="360" as="geometry" />
        </mxCell>
        <mxCell id="KLdrCbY5R_B38G-SL5DR-17" value="MiniApp Container" style="text;html=1;align=center;verticalAlign=middle;resizable=0;points=[];autosize=1;strokeColor=none;fillColor=none;fontSize=13;fontColor=#000000;" parent="KLdrCbY5R_B38G-SL5DR-24" vertex="1">
          <mxGeometry x="60" y="10" width="130" height="30" as="geometry" />
        </mxCell>
        <mxCell id="KLdrCbY5R_B38G-SL5DR-18" value="" style="whiteSpace=wrap;html=1;rounded=0;shadow=0;glass=0;strokeColor=#d79b00;strokeWidth=1.5;fontSize=13;fillColor=#ffe6cc;" parent="KLdrCbY5R_B38G-SL5DR-24" vertex="1">
          <mxGeometry x="10" y="50" width="220" height="220" as="geometry" />
        </mxCell>
        <mxCell id="KLdrCbY5R_B38G-SL5DR-19" value="生命周期" style="whiteSpace=wrap;html=1;rounded=0;shadow=0;glass=0;strokeColor=#333333;strokeWidth=1.5;fontSize=13;fontColor=#000000;fillColor=none;gradientColor=none;" parent="KLdrCbY5R_B38G-SL5DR-24" vertex="1">
          <mxGeometry x="10" y="287" width="100" height="30" as="geometry" />
        </mxCell>
        <mxCell id="KLdrCbY5R_B38G-SL5DR-20" value="监控" style="whiteSpace=wrap;html=1;rounded=0;shadow=0;glass=0;strokeColor=#333333;strokeWidth=1.5;fontSize=13;fontColor=#000000;fillColor=none;gradientColor=none;" parent="KLdrCbY5R_B38G-SL5DR-24" vertex="1">
          <mxGeometry x="120" y="287" width="110" height="30" as="geometry" />
        </mxCell>
        <mxCell id="KLdrCbY5R_B38G-SL5DR-21" value="样式控制" style="whiteSpace=wrap;html=1;rounded=0;shadow=0;glass=0;strokeColor=#333333;strokeWidth=1.5;fontSize=13;fontColor=#000000;fillColor=none;gradientColor=none;" parent="KLdrCbY5R_B38G-SL5DR-24" vertex="1">
          <mxGeometry x="10" y="323" width="100" height="30" as="geometry" />
        </mxCell>
        <mxCell id="KLdrCbY5R_B38G-SL5DR-22" value="Native 组件" style="whiteSpace=wrap;html=1;rounded=0;shadow=0;glass=0;strokeColor=#333333;strokeWidth=1.5;fontSize=13;fontColor=#000000;fillColor=none;gradientColor=none;" parent="KLdrCbY5R_B38G-SL5DR-24" vertex="1">
          <mxGeometry x="120" y="323" width="110" height="30" as="geometry" />
        </mxCell>
        <mxCell id="KLdrCbY5R_B38G-SL5DR-51" style="edgeStyle=orthogonalEdgeStyle;rounded=0;orthogonalLoop=1;jettySize=auto;html=1;entryX=0;entryY=0.25;entryDx=0;entryDy=0;dashed=1;dashPattern=1 1;strokeColor=#000000;strokeWidth=2;fontSize=13;fontColor=#000000;" parent="1" source="KLdrCbY5R_B38G-SL5DR-27" target="KLdrCbY5R_B38G-SL5DR-16" edge="1">
          <mxGeometry relative="1" as="geometry">
            <Array as="points">
              <mxPoint x="440" y="190" />
            </Array>
          </mxGeometry>
        </mxCell>
        <mxCell id="KLdrCbY5R_B38G-SL5DR-52" style="edgeStyle=orthogonalEdgeStyle;rounded=0;orthogonalLoop=1;jettySize=auto;html=1;dashed=1;dashPattern=1 1;strokeColor=#000000;strokeWidth=2;fontSize=13;fontColor=#000000;" parent="1" source="KLdrCbY5R_B38G-SL5DR-27" target="KLdrCbY5R_B38G-SL5DR-45" edge="1">
          <mxGeometry relative="1" as="geometry" />
        </mxCell>
        <mxCell id="KLdrCbY5R_B38G-SL5DR-27" value="MiniApp Manager" style="whiteSpace=wrap;html=1;rounded=0;shadow=0;glass=0;strokeColor=#333333;strokeWidth=1.5;fontSize=13;fontColor=#000000;fillColor=none;gradientColor=none;" parent="1" vertex="1">
          <mxGeometry x="370" y="-10" width="120" height="60" as="geometry" />
        </mxCell>
        <mxCell id="KLdrCbY5R_B38G-SL5DR-36" style="edgeStyle=orthogonalEdgeStyle;rounded=0;orthogonalLoop=1;jettySize=auto;html=1;strokeWidth=2;fontSize=13;fontColor=#000000;" parent="1" source="KLdrCbY5R_B38G-SL5DR-28" edge="1">
          <mxGeometry relative="1" as="geometry">
            <mxPoint x="120" y="330" as="targetPoint" />
            <Array as="points">
              <mxPoint x="40" y="20" />
              <mxPoint x="40" y="330" />
            </Array>
          </mxGeometry>
        </mxCell>
        <mxCell id="KLdrCbY5R_B38G-SL5DR-28" value="AccessPointPool" style="whiteSpace=wrap;html=1;rounded=0;shadow=0;glass=0;strokeColor=#333333;strokeWidth=1.5;fontSize=13;fontColor=#000000;fillColor=none;gradientColor=none;" parent="1" vertex="1">
          <mxGeometry x="150" y="-10" width="120" height="60" as="geometry" />
        </mxCell>
        <mxCell id="KLdrCbY5R_B38G-SL5DR-33" value="" style="group" parent="1" vertex="1" connectable="0">
          <mxGeometry x="140" y="-170" width="340" height="80" as="geometry" />
        </mxCell>
        <mxCell id="KLdrCbY5R_B38G-SL5DR-25" value="MiniApp Config Data" style="whiteSpace=wrap;html=1;rounded=0;shadow=0;glass=0;strokeColor=#333333;strokeWidth=1.5;fontSize=13;fontColor=#000000;fillColor=none;gradientColor=none;" parent="KLdrCbY5R_B38G-SL5DR-33" vertex="1">
          <mxGeometry width="340" height="80" as="geometry" />
        </mxCell>
        <mxCell id="KLdrCbY5R_B38G-SL5DR-26" value="Server" style="text;html=1;align=center;verticalAlign=middle;resizable=0;points=[];autosize=1;strokeColor=none;fillColor=none;fontSize=13;fontColor=#000000;" parent="KLdrCbY5R_B38G-SL5DR-33" vertex="1">
          <mxGeometry x="1" y="1" width="60" height="30" as="geometry" />
        </mxCell>
        <mxCell id="KLdrCbY5R_B38G-SL5DR-34" style="edgeStyle=orthogonalEdgeStyle;rounded=0;orthogonalLoop=1;jettySize=auto;html=1;entryX=0.5;entryY=0;entryDx=0;entryDy=0;strokeWidth=2;fontSize=13;fontColor=#000000;" parent="1" source="KLdrCbY5R_B38G-SL5DR-25" target="KLdrCbY5R_B38G-SL5DR-28" edge="1">
          <mxGeometry relative="1" as="geometry" />
        </mxCell>
        <mxCell id="KLdrCbY5R_B38G-SL5DR-35" style="edgeStyle=orthogonalEdgeStyle;rounded=0;orthogonalLoop=1;jettySize=auto;html=1;strokeWidth=2;fontSize=13;fontColor=#000000;" parent="1" source="KLdrCbY5R_B38G-SL5DR-25" target="KLdrCbY5R_B38G-SL5DR-27" edge="1">
          <mxGeometry relative="1" as="geometry" />
        </mxCell>
        <mxCell id="KLdrCbY5R_B38G-SL5DR-37" value="" style="group" parent="1" vertex="1" connectable="0">
          <mxGeometry x="1060" y="90" width="240" height="360" as="geometry" />
        </mxCell>
        <mxCell id="KLdrCbY5R_B38G-SL5DR-38" value="" style="whiteSpace=wrap;html=1;rounded=0;shadow=0;glass=0;strokeColor=#333333;strokeWidth=1.5;fontSize=13;fontColor=#000000;fillColor=none;gradientColor=none;" parent="KLdrCbY5R_B38G-SL5DR-37" vertex="1">
          <mxGeometry width="240" height="360" as="geometry" />
        </mxCell>
        <mxCell id="KLdrCbY5R_B38G-SL5DR-39" value="MiniApp Container" style="text;html=1;align=center;verticalAlign=middle;resizable=0;points=[];autosize=1;strokeColor=none;fillColor=none;fontSize=13;fontColor=#000000;" parent="KLdrCbY5R_B38G-SL5DR-37" vertex="1">
          <mxGeometry x="60" y="10" width="130" height="30" as="geometry" />
        </mxCell>
        <mxCell id="KLdrCbY5R_B38G-SL5DR-40" value="" style="whiteSpace=wrap;html=1;rounded=0;shadow=0;glass=0;strokeColor=#d79b00;strokeWidth=1.5;fontSize=13;fillColor=#ffe6cc;" parent="KLdrCbY5R_B38G-SL5DR-37" vertex="1">
          <mxGeometry x="10" y="50" width="220" height="220" as="geometry" />
        </mxCell>
        <mxCell id="KLdrCbY5R_B38G-SL5DR-41" value="生命周期" style="whiteSpace=wrap;html=1;rounded=0;shadow=0;glass=0;strokeColor=#333333;strokeWidth=1.5;fontSize=13;fontColor=#000000;fillColor=none;gradientColor=none;" parent="KLdrCbY5R_B38G-SL5DR-37" vertex="1">
          <mxGeometry x="10" y="287" width="100" height="30" as="geometry" />
        </mxCell>
        <mxCell id="KLdrCbY5R_B38G-SL5DR-42" value="监控" style="whiteSpace=wrap;html=1;rounded=0;shadow=0;glass=0;strokeColor=#333333;strokeWidth=1.5;fontSize=13;fontColor=#000000;fillColor=none;gradientColor=none;" parent="KLdrCbY5R_B38G-SL5DR-37" vertex="1">
          <mxGeometry x="120" y="287" width="110" height="30" as="geometry" />
        </mxCell>
        <mxCell id="KLdrCbY5R_B38G-SL5DR-43" value="样式控制" style="whiteSpace=wrap;html=1;rounded=0;shadow=0;glass=0;strokeColor=#333333;strokeWidth=1.5;fontSize=13;fontColor=#000000;fillColor=none;gradientColor=none;" parent="KLdrCbY5R_B38G-SL5DR-37" vertex="1">
          <mxGeometry x="10" y="323" width="100" height="30" as="geometry" />
        </mxCell>
        <mxCell id="KLdrCbY5R_B38G-SL5DR-44" value="Native 组件" style="whiteSpace=wrap;html=1;rounded=0;shadow=0;glass=0;strokeColor=#333333;strokeWidth=1.5;fontSize=13;fontColor=#000000;fillColor=none;gradientColor=none;" parent="KLdrCbY5R_B38G-SL5DR-37" vertex="1">
          <mxGeometry x="120" y="323" width="110" height="30" as="geometry" />
        </mxCell>
        <mxCell id="KLdrCbY5R_B38G-SL5DR-50" style="edgeStyle=orthogonalEdgeStyle;rounded=0;orthogonalLoop=1;jettySize=auto;html=1;entryX=-0.019;entryY=0.53;entryDx=0;entryDy=0;entryPerimeter=0;strokeColor=#9B01FF;strokeWidth=2;fontSize=13;fontColor=#000000;" parent="1" source="KLdrCbY5R_B38G-SL5DR-45" target="KLdrCbY5R_B38G-SL5DR-38" edge="1">
          <mxGeometry relative="1" as="geometry" />
        </mxCell>
        <mxCell id="KLdrCbY5R_B38G-SL5DR-49" style="edgeStyle=orthogonalEdgeStyle;rounded=0;orthogonalLoop=1;jettySize=auto;html=1;entryX=0;entryY=0.5;entryDx=0;entryDy=0;strokeColor=#9B01FF;strokeWidth=2;fontSize=13;fontColor=#000000;" parent="1" source="KLdrCbY5R_B38G-SL5DR-16" target="KLdrCbY5R_B38G-SL5DR-45" edge="1">
          <mxGeometry relative="1" as="geometry" />
        </mxCell>
        <mxCell id="TUvtC57kEoNjuDEK7iN8-7" value="" style="group" parent="1" vertex="1" connectable="0">
          <mxGeometry x="850" y="242.5" width="150" height="75" as="geometry" />
        </mxCell>
        <mxCell id="KLdrCbY5R_B38G-SL5DR-45" value="" style="whiteSpace=wrap;html=1;rounded=0;shadow=0;glass=0;strokeColor=#333333;strokeWidth=1.5;fontSize=13;fontColor=#000000;fillColor=none;gradientColor=none;" parent="TUvtC57kEoNjuDEK7iN8-7" vertex="1">
          <mxGeometry width="150" height="75" as="geometry" />
        </mxCell>
        <mxCell id="TUvtC57kEoNjuDEK7iN8-1" value="跳转" style="whiteSpace=wrap;html=1;rounded=0;shadow=0;glass=0;strokeColor=#333333;strokeWidth=1.5;fontSize=13;fontColor=#000000;fillColor=none;gradientColor=none;" parent="TUvtC57kEoNjuDEK7iN8-7" vertex="1">
          <mxGeometry x="7" y="40" width="40" height="25" as="geometry" />
        </mxCell>
        <mxCell id="TUvtC57kEoNjuDEK7iN8-2" value="传参" style="whiteSpace=wrap;html=1;rounded=0;shadow=0;glass=0;strokeColor=#333333;strokeWidth=1.5;fontSize=13;fontColor=#000000;fillColor=none;gradientColor=none;" parent="TUvtC57kEoNjuDEK7iN8-7" vertex="1">
          <mxGeometry x="57" y="40" width="40" height="25" as="geometry" />
        </mxCell>
        <mxCell id="TUvtC57kEoNjuDEK7iN8-3" value="降级" style="whiteSpace=wrap;html=1;rounded=0;shadow=0;glass=0;strokeColor=#333333;strokeWidth=1.5;fontSize=13;fontColor=#000000;fillColor=none;gradientColor=none;" parent="TUvtC57kEoNjuDEK7iN8-7" vertex="1">
          <mxGeometry x="104" y="40" width="40" height="25" as="geometry" />
        </mxCell>
        <mxCell id="TUvtC57kEoNjuDEK7iN8-4" value="&lt;span style=&quot;font-size: 15px;&quot;&gt;通信模块&lt;/span&gt;" style="text;html=1;align=center;verticalAlign=middle;resizable=0;points=[];autosize=1;strokeColor=none;fillColor=none;fontSize=15;fontColor=#000000;" parent="TUvtC57kEoNjuDEK7iN8-7" vertex="1">
          <mxGeometry x="35" y="1" width="80" height="30" as="geometry" />
        </mxCell>
      </root>
    </mxGraphModel>
  </diagram>
  <diagram id="7cKutRwsubEBB5XHyEZw" name="展望">
    <mxGraphModel dx="1298" dy="2003" grid="1" gridSize="10" guides="1" tooltips="1" connect="1" arrows="1" fold="1" page="1" pageScale="1" pageWidth="827" pageHeight="1169" math="0" shadow="0">
      <root>
        <mxCell id="0" />
        <mxCell id="1" parent="0" />
        <mxCell id="YJ-L5Cm4V2buNqB3KFXf-1" value="" style="whiteSpace=wrap;html=1;rounded=0;shadow=0;glass=0;dashed=1;strokeColor=#99CCFF;strokeWidth=1.5;fontColor=#000000;fillColor=none;gradientColor=none;" parent="1" vertex="1">
          <mxGeometry x="110" y="98" width="820" height="50" as="geometry" />
        </mxCell>
        <mxCell id="YJ-L5Cm4V2buNqB3KFXf-2" value="小程序容器" style="whiteSpace=wrap;html=1;strokeWidth=1.5;fontColor=#000000;fillColor=#FFFFFF;" parent="1" vertex="1">
          <mxGeometry x="330" y="55" width="200" height="35" as="geometry" />
        </mxCell>
        <mxCell id="YJ-L5Cm4V2buNqB3KFXf-3" value="bridge 兼容层" style="whiteSpace=wrap;html=1;strokeWidth=1.5;fillColor=#d5e8d4;strokeColor=#82b366;" parent="1" vertex="1">
          <mxGeometry x="330" y="208" width="420" height="35" as="geometry" />
        </mxCell>
        <mxCell id="YJ-L5Cm4V2buNqB3KFXf-4" value="MiniApp" style="whiteSpace=wrap;html=1;strokeWidth=1.5;fillColor=#d5e8d4;strokeColor=#82b366;" parent="1" vertex="1">
          <mxGeometry x="110" y="10" width="820" height="35" as="geometry" />
        </mxCell>
        <mxCell id="YJ-L5Cm4V2buNqB3KFXf-5" value="Android/iOS Bridge" style="whiteSpace=wrap;html=1;strokeWidth=1.5;fontColor=#000000;fillColor=#FFFFFF;" parent="1" vertex="1">
          <mxGeometry x="410" y="159" width="120" height="35" as="geometry" />
        </mxCell>
        <mxCell id="YJ-L5Cm4V2buNqB3KFXf-6" value="合规管控层" style="whiteSpace=wrap;html=1;strokeWidth=1.5;fontColor=#000000;fillColor=#FFFFFF;" parent="1" vertex="1">
          <mxGeometry x="110" y="255" width="820" height="35" as="geometry" />
        </mxCell>
        <mxCell id="YJ-L5Cm4V2buNqB3KFXf-7" value="小程序基建" style="whiteSpace=wrap;html=1;strokeWidth=1.5;fontColor=#000000;fillColor=#FFFFFF;" parent="1" vertex="1">
          <mxGeometry x="330" y="159" width="70" height="35" as="geometry" />
        </mxCell>
        <mxCell id="YJ-L5Cm4V2buNqB3KFXf-8" value="H5容器" style="whiteSpace=wrap;html=1;strokeWidth=1.5;fontColor=#000000;fillColor=#FFFFFF;" parent="1" vertex="1">
          <mxGeometry x="550" y="55" width="200" height="35" as="geometry" />
        </mxCell>
        <mxCell id="YJ-L5Cm4V2buNqB3KFXf-9" value="生命周期" style="whiteSpace=wrap;html=1;strokeWidth=1.5;" parent="1" vertex="1">
          <mxGeometry x="163" y="108" width="130" height="30" as="geometry" />
        </mxCell>
        <mxCell id="YJ-L5Cm4V2buNqB3KFXf-10" value="监控" style="whiteSpace=wrap;html=1;strokeWidth=1.5;" parent="1" vertex="1">
          <mxGeometry x="365" y="108.5" width="130" height="30" as="geometry" />
        </mxCell>
        <mxCell id="YJ-L5Cm4V2buNqB3KFXf-11" value="样式配置" style="whiteSpace=wrap;html=1;strokeWidth=1.5;fillColor=#d5e8d4;strokeColor=#82b366;" parent="1" vertex="1">
          <mxGeometry x="558" y="108.5" width="150" height="30" as="geometry" />
        </mxCell>
        <mxCell id="YJ-L5Cm4V2buNqB3KFXf-12" value="Native 组件" style="whiteSpace=wrap;html=1;strokeWidth=1.5;" parent="1" vertex="1">
          <mxGeometry x="761" y="108.5" width="148" height="30" as="geometry" />
        </mxCell>
        <mxCell id="YJ-L5Cm4V2buNqB3KFXf-13" value="H5 基建" style="whiteSpace=wrap;html=1;strokeWidth=1.5;fontColor=#000000;fillColor=#FFFFFF;" parent="1" vertex="1">
          <mxGeometry x="550" y="159" width="60" height="35" as="geometry" />
        </mxCell>
        <mxCell id="YJ-L5Cm4V2buNqB3KFXf-14" value="H5 &amp;amp;端通信" style="whiteSpace=wrap;html=1;strokeWidth=1.5;fontColor=#000000;fillColor=#FFFFFF;" parent="1" vertex="1">
          <mxGeometry x="620" y="159" width="130" height="35" as="geometry" />
        </mxCell>
        <mxCell id="YJ-L5Cm4V2buNqB3KFXf-15" value="Native 容器" style="whiteSpace=wrap;html=1;strokeWidth=1.5;fontColor=#000000;fillColor=#FFFFFF;" parent="1" vertex="1">
          <mxGeometry x="110" y="55" width="200" height="35" as="geometry" />
        </mxCell>
        <mxCell id="YJ-L5Cm4V2buNqB3KFXf-16" value="其他容器" style="whiteSpace=wrap;html=1;strokeWidth=1.5;fontColor=#000000;fillColor=#FFFFFF;" parent="1" vertex="1">
          <mxGeometry x="760" y="55" width="170" height="35" as="geometry" />
        </mxCell>
        <mxCell id="YJ-L5Cm4V2buNqB3KFXf-18" value="端通信能力" style="whiteSpace=wrap;html=1;rounded=0;shadow=0;glass=0;strokeColor=#333333;strokeWidth=1.5;fontSize=13;fontColor=#000000;fillColor=none;gradientColor=none;" parent="1" vertex="1">
          <mxGeometry x="770" y="159" width="160" height="81" as="geometry" />
        </mxCell>
        <mxCell id="YJ-L5Cm4V2buNqB3KFXf-19" value="OC SDK" style="whiteSpace=wrap;html=1;rounded=0;shadow=0;glass=0;strokeColor=#333333;strokeWidth=1.5;fontSize=13;fontColor=#000000;fillColor=none;gradientColor=none;" parent="1" vertex="1">
          <mxGeometry x="110" y="-40" width="120" height="35" as="geometry" />
        </mxCell>
        <mxCell id="YJ-L5Cm4V2buNqB3KFXf-21" value="Bundle" style="whiteSpace=wrap;html=1;rounded=0;shadow=0;glass=0;strokeColor=#333333;strokeWidth=1.5;fontSize=13;fontColor=#000000;fillColor=none;gradientColor=none;" parent="1" vertex="1">
          <mxGeometry x="460" y="-40" width="120" height="35" as="geometry" />
        </mxCell>
        <mxCell id="YJ-L5Cm4V2buNqB3KFXf-22" value="URL" style="whiteSpace=wrap;html=1;rounded=0;shadow=0;glass=0;strokeColor=#333333;strokeWidth=1.5;fontSize=13;fontColor=#000000;fillColor=none;gradientColor=none;" parent="1" vertex="1">
          <mxGeometry x="635" y="-40" width="120" height="35" as="geometry" />
        </mxCell>
        <mxCell id="YJ-L5Cm4V2buNqB3KFXf-23" value="Any SDK" style="whiteSpace=wrap;html=1;rounded=0;shadow=0;glass=0;strokeColor=#333333;strokeWidth=1.5;fontSize=13;fontColor=#000000;fillColor=none;gradientColor=none;" parent="1" vertex="1">
          <mxGeometry x="810" y="-40" width="120" height="35" as="geometry" />
        </mxCell>
        <mxCell id="YJ-L5Cm4V2buNqB3KFXf-24" value="业务1" style="whiteSpace=wrap;html=1;rounded=1;shadow=0;glass=0;strokeColor=#333333;strokeWidth=1.5;fontSize=13;fontColor=#000000;fillColor=none;gradientColor=none;" parent="1" vertex="1">
          <mxGeometry x="110" y="-131" width="50" height="80" as="geometry" />
        </mxCell>
        <mxCell id="YJ-L5Cm4V2buNqB3KFXf-25" value="业务2" style="whiteSpace=wrap;html=1;rounded=1;shadow=0;glass=0;strokeColor=#333333;strokeWidth=1.5;fontSize=13;fontColor=#000000;fillColor=none;gradientColor=none;" parent="1" vertex="1">
          <mxGeometry x="220" y="-131" width="50" height="80" as="geometry" />
        </mxCell>
        <mxCell id="YJ-L5Cm4V2buNqB3KFXf-26" value="业务3" style="whiteSpace=wrap;html=1;rounded=1;shadow=0;glass=0;strokeColor=#333333;strokeWidth=1.5;fontSize=13;fontColor=#000000;fillColor=none;gradientColor=none;" parent="1" vertex="1">
          <mxGeometry x="330" y="-131" width="50" height="80" as="geometry" />
        </mxCell>
        <mxCell id="YJ-L5Cm4V2buNqB3KFXf-27" value="业务4" style="whiteSpace=wrap;html=1;rounded=1;shadow=0;glass=0;strokeColor=#333333;strokeWidth=1.5;fontSize=13;fontColor=#000000;fillColor=none;gradientColor=none;" parent="1" vertex="1">
          <mxGeometry x="440" y="-131" width="50" height="80" as="geometry" />
        </mxCell>
        <mxCell id="YJ-L5Cm4V2buNqB3KFXf-28" value="业务5" style="whiteSpace=wrap;html=1;rounded=1;shadow=0;glass=0;strokeColor=#333333;strokeWidth=1.5;fontSize=13;fontColor=#000000;fillColor=none;gradientColor=none;" parent="1" vertex="1">
          <mxGeometry x="550" y="-131" width="50" height="80" as="geometry" />
        </mxCell>
        <mxCell id="YJ-L5Cm4V2buNqB3KFXf-29" value="业务6" style="whiteSpace=wrap;html=1;rounded=1;shadow=0;glass=0;strokeColor=#333333;strokeWidth=1.5;fontSize=13;fontColor=#000000;fillColor=none;gradientColor=none;" parent="1" vertex="1">
          <mxGeometry x="660" y="-131" width="50" height="80" as="geometry" />
        </mxCell>
        <mxCell id="YJ-L5Cm4V2buNqB3KFXf-30" value="业务n" style="whiteSpace=wrap;html=1;rounded=1;shadow=0;glass=0;strokeColor=#333333;strokeWidth=1.5;fontSize=13;fontColor=#000000;fillColor=none;gradientColor=none;" parent="1" vertex="1">
          <mxGeometry x="880" y="-131" width="50" height="80" as="geometry" />
        </mxCell>
        <mxCell id="3kbvwP0ryU8P5snOBzRi-1" value="Swift SDK" style="whiteSpace=wrap;html=1;rounded=0;shadow=0;glass=0;strokeColor=#333333;strokeWidth=1.5;fontSize=13;fontColor=#000000;fillColor=none;gradientColor=none;" parent="1" vertex="1">
          <mxGeometry x="285" y="-40" width="120" height="35" as="geometry" />
        </mxCell>
        <mxCell id="3kbvwP0ryU8P5snOBzRi-3" value="..." style="whiteSpace=wrap;html=1;rounded=1;shadow=0;glass=0;strokeColor=#333333;strokeWidth=1.5;fontSize=13;fontColor=#000000;fillColor=none;gradientColor=none;" parent="1" vertex="1">
          <mxGeometry x="770" y="-131" width="50" height="80" as="geometry" />
        </mxCell>
        <mxCell id="3kbvwP0ryU8P5snOBzRi-4" value="Native适配" style="whiteSpace=wrap;html=1;" parent="1" vertex="1">
          <mxGeometry x="110" y="159" width="190" height="81" as="geometry" />
        </mxCell>
      </root>
    </mxGraphModel>
  </diagram>
  <diagram id="1WUZlWwt-5JopGxYlQpR" name="合规">
    <mxGraphModel dx="1298" dy="2003" grid="1" gridSize="10" guides="1" tooltips="1" connect="1" arrows="1" fold="1" page="1" pageScale="1" pageWidth="827" pageHeight="1169" math="0" shadow="0">
      <root>
        <mxCell id="0" />
        <mxCell id="1" parent="0" />
        <mxCell id="Ro8X-PI6DjRa_9XCdlRu-21" style="edgeStyle=orthogonalEdgeStyle;rounded=0;orthogonalLoop=1;jettySize=auto;html=1;entryX=0;entryY=0.5;entryDx=0;entryDy=0;strokeColor=#000000;strokeWidth=2;fontSize=13;fontColor=#000000;" parent="1" source="Ro8X-PI6DjRa_9XCdlRu-1" target="Ro8X-PI6DjRa_9XCdlRu-18" edge="1">
          <mxGeometry relative="1" as="geometry" />
        </mxCell>
        <mxCell id="Ro8X-PI6DjRa_9XCdlRu-22" style="edgeStyle=orthogonalEdgeStyle;rounded=0;orthogonalLoop=1;jettySize=auto;html=1;entryX=0;entryY=0.5;entryDx=0;entryDy=0;strokeColor=#000000;strokeWidth=2;fontSize=13;fontColor=#000000;" parent="1" source="Ro8X-PI6DjRa_9XCdlRu-1" target="Ro8X-PI6DjRa_9XCdlRu-5" edge="1">
          <mxGeometry relative="1" as="geometry" />
        </mxCell>
        <mxCell id="Ro8X-PI6DjRa_9XCdlRu-23" style="edgeStyle=orthogonalEdgeStyle;rounded=0;orthogonalLoop=1;jettySize=auto;html=1;entryX=0;entryY=0.5;entryDx=0;entryDy=0;strokeColor=#000000;strokeWidth=2;fontSize=13;fontColor=#000000;" parent="1" source="Ro8X-PI6DjRa_9XCdlRu-1" target="Ro8X-PI6DjRa_9XCdlRu-6" edge="1">
          <mxGeometry relative="1" as="geometry" />
        </mxCell>
        <mxCell id="Ro8X-PI6DjRa_9XCdlRu-24" style="edgeStyle=orthogonalEdgeStyle;rounded=0;orthogonalLoop=1;jettySize=auto;html=1;entryX=0;entryY=0.5;entryDx=0;entryDy=0;strokeColor=#000000;strokeWidth=2;fontSize=13;fontColor=#000000;" parent="1" source="Ro8X-PI6DjRa_9XCdlRu-1" target="Ro8X-PI6DjRa_9XCdlRu-7" edge="1">
          <mxGeometry relative="1" as="geometry" />
        </mxCell>
        <mxCell id="Ro8X-PI6DjRa_9XCdlRu-1" value="ComplianceModule" style="swimlane;fontStyle=0;childLayout=stackLayout;horizontal=1;startSize=26;fillColor=none;horizontalStack=0;resizeParent=1;resizeParentMax=0;resizeLast=0;collapsible=1;marginBottom=0;rounded=0;shadow=0;glass=0;strokeColor=#333333;strokeWidth=1.5;fontSize=13;fontColor=#000000;" parent="1" vertex="1">
          <mxGeometry x="130" y="200" width="190" height="52" as="geometry" />
        </mxCell>
        <mxCell id="Ro8X-PI6DjRa_9XCdlRu-2" value="+ 品类的合规管控" style="text;strokeColor=none;fillColor=none;align=left;verticalAlign=top;spacingLeft=4;spacingRight=4;overflow=hidden;rotatable=0;points=[[0,0.5],[1,0.5]];portConstraint=eastwest;rounded=0;shadow=0;glass=0;strokeWidth=1.5;fontSize=13;fontColor=#000000;" parent="Ro8X-PI6DjRa_9XCdlRu-1" vertex="1">
          <mxGeometry y="26" width="190" height="26" as="geometry" />
        </mxCell>
        <mxCell id="Ro8X-PI6DjRa_9XCdlRu-16" style="edgeStyle=orthogonalEdgeStyle;rounded=0;orthogonalLoop=1;jettySize=auto;html=1;entryX=0;entryY=0.5;entryDx=0;entryDy=0;strokeColor=#000000;strokeWidth=2;fontSize=13;fontColor=#000000;" parent="1" source="Ro8X-PI6DjRa_9XCdlRu-5" target="Ro8X-PI6DjRa_9XCdlRu-8" edge="1">
          <mxGeometry relative="1" as="geometry" />
        </mxCell>
        <mxCell id="Ro8X-PI6DjRa_9XCdlRu-17" style="edgeStyle=orthogonalEdgeStyle;rounded=0;orthogonalLoop=1;jettySize=auto;html=1;strokeColor=#000000;strokeWidth=2;fontSize=13;fontColor=#000000;" parent="1" source="Ro8X-PI6DjRa_9XCdlRu-5" target="Ro8X-PI6DjRa_9XCdlRu-9" edge="1">
          <mxGeometry relative="1" as="geometry" />
        </mxCell>
        <mxCell id="Ro8X-PI6DjRa_9XCdlRu-5" value="权限管理" style="whiteSpace=wrap;html=1;rounded=0;shadow=0;glass=0;strokeColor=#333333;strokeWidth=1.5;fontSize=13;fontColor=#000000;fillColor=none;gradientColor=none;" parent="1" vertex="1">
          <mxGeometry x="420" y="100" width="120" height="50" as="geometry" />
        </mxCell>
        <mxCell id="Ro8X-PI6DjRa_9XCdlRu-8" value="申请" style="whiteSpace=wrap;html=1;rounded=0;shadow=0;glass=0;strokeColor=#333333;strokeWidth=1.5;fontSize=13;fontColor=#000000;fillColor=none;gradientColor=none;" parent="1" vertex="1">
          <mxGeometry x="640" y="70" width="90" height="40" as="geometry" />
        </mxCell>
        <mxCell id="Ro8X-PI6DjRa_9XCdlRu-9" value="撤销" style="whiteSpace=wrap;html=1;rounded=0;shadow=0;glass=0;strokeColor=#333333;strokeWidth=1.5;fontSize=13;fontColor=#000000;fillColor=none;gradientColor=none;" parent="1" vertex="1">
          <mxGeometry x="640" y="140" width="90" height="40" as="geometry" />
        </mxCell>
        <mxCell id="Ro8X-PI6DjRa_9XCdlRu-18" value="隐私协议弹窗" style="whiteSpace=wrap;html=1;rounded=0;shadow=0;glass=0;strokeColor=#333333;strokeWidth=1.5;fontSize=13;fontColor=#000000;fillColor=none;gradientColor=none;" parent="1" vertex="1">
          <mxGeometry x="420" y="-20" width="120" height="50" as="geometry" />
        </mxCell>
        <mxCell id="Ro8X-PI6DjRa_9XCdlRu-26" value="" style="group" parent="1" vertex="1" connectable="0">
          <mxGeometry x="420" y="420" width="310" height="110" as="geometry" />
        </mxCell>
        <mxCell id="Ro8X-PI6DjRa_9XCdlRu-7" value="域名校验" style="whiteSpace=wrap;html=1;rounded=0;shadow=0;glass=0;strokeColor=#6c8ebf;strokeWidth=1.5;fontSize=13;fillColor=#dae8fc;" parent="Ro8X-PI6DjRa_9XCdlRu-26" vertex="1">
          <mxGeometry y="30" width="120" height="50" as="geometry" />
        </mxCell>
        <mxCell id="Ro8X-PI6DjRa_9XCdlRu-12" value="http 接口" style="whiteSpace=wrap;html=1;rounded=0;shadow=0;glass=0;strokeColor=#6c8ebf;strokeWidth=1.5;fontSize=13;fillColor=#dae8fc;" parent="Ro8X-PI6DjRa_9XCdlRu-26" vertex="1">
          <mxGeometry x="220" width="90" height="40" as="geometry" />
        </mxCell>
        <mxCell id="Ro8X-PI6DjRa_9XCdlRu-14" style="edgeStyle=orthogonalEdgeStyle;rounded=0;orthogonalLoop=1;jettySize=auto;html=1;entryX=0;entryY=0.5;entryDx=0;entryDy=0;strokeColor=#000000;strokeWidth=2;fontSize=13;fontColor=#000000;" parent="Ro8X-PI6DjRa_9XCdlRu-26" source="Ro8X-PI6DjRa_9XCdlRu-7" target="Ro8X-PI6DjRa_9XCdlRu-12" edge="1">
          <mxGeometry relative="1" as="geometry" />
        </mxCell>
        <mxCell id="Ro8X-PI6DjRa_9XCdlRu-13" value="海外域名" style="whiteSpace=wrap;html=1;rounded=0;shadow=0;glass=0;strokeColor=#6c8ebf;strokeWidth=1.5;fontSize=13;fillColor=#dae8fc;" parent="Ro8X-PI6DjRa_9XCdlRu-26" vertex="1">
          <mxGeometry x="220" y="70" width="90" height="40" as="geometry" />
        </mxCell>
        <mxCell id="Ro8X-PI6DjRa_9XCdlRu-15" style="edgeStyle=orthogonalEdgeStyle;rounded=0;orthogonalLoop=1;jettySize=auto;html=1;entryX=0;entryY=0.5;entryDx=0;entryDy=0;strokeColor=#000000;strokeWidth=2;fontSize=13;fontColor=#000000;" parent="Ro8X-PI6DjRa_9XCdlRu-26" source="Ro8X-PI6DjRa_9XCdlRu-7" target="Ro8X-PI6DjRa_9XCdlRu-13" edge="1">
          <mxGeometry relative="1" as="geometry" />
        </mxCell>
        <mxCell id="Ro8X-PI6DjRa_9XCdlRu-29" value="" style="group" parent="1" vertex="1" connectable="0">
          <mxGeometry x="420" y="210" width="310" height="160" as="geometry" />
        </mxCell>
        <mxCell id="Ro8X-PI6DjRa_9XCdlRu-6" value="敏感信息管控" style="whiteSpace=wrap;html=1;rounded=0;shadow=0;glass=0;strokeColor=#333333;strokeWidth=1.5;fontSize=13;fontColor=#000000;fillColor=none;gradientColor=none;" parent="Ro8X-PI6DjRa_9XCdlRu-29" vertex="1">
          <mxGeometry y="55" width="120" height="50" as="geometry" />
        </mxCell>
        <mxCell id="Ro8X-PI6DjRa_9XCdlRu-10" value="本地存储" style="whiteSpace=wrap;html=1;rounded=0;shadow=0;glass=0;strokeColor=#6c8ebf;strokeWidth=1.5;fontSize=13;fillColor=#dae8fc;" parent="Ro8X-PI6DjRa_9XCdlRu-29" vertex="1">
          <mxGeometry x="220" width="90" height="40" as="geometry" />
        </mxCell>
        <mxCell id="Ro8X-PI6DjRa_9XCdlRu-28" style="edgeStyle=orthogonalEdgeStyle;rounded=0;orthogonalLoop=1;jettySize=auto;html=1;entryX=0;entryY=0.5;entryDx=0;entryDy=0;strokeColor=#000000;strokeWidth=2;fontSize=13;fontColor=#000000;" parent="Ro8X-PI6DjRa_9XCdlRu-29" source="Ro8X-PI6DjRa_9XCdlRu-6" target="Ro8X-PI6DjRa_9XCdlRu-10" edge="1">
          <mxGeometry relative="1" as="geometry" />
        </mxCell>
        <mxCell id="Ro8X-PI6DjRa_9XCdlRu-11" value="上传" style="whiteSpace=wrap;html=1;rounded=0;shadow=0;glass=0;strokeColor=#6c8ebf;strokeWidth=1.5;fontSize=13;fillColor=#dae8fc;" parent="Ro8X-PI6DjRa_9XCdlRu-29" vertex="1">
          <mxGeometry x="220" y="60" width="90" height="40" as="geometry" />
        </mxCell>
        <mxCell id="Ro8X-PI6DjRa_9XCdlRu-20" style="edgeStyle=orthogonalEdgeStyle;rounded=0;orthogonalLoop=1;jettySize=auto;html=1;entryX=0;entryY=0.5;entryDx=0;entryDy=0;strokeColor=#000000;strokeWidth=2;fontSize=13;fontColor=#000000;" parent="Ro8X-PI6DjRa_9XCdlRu-29" source="Ro8X-PI6DjRa_9XCdlRu-6" target="Ro8X-PI6DjRa_9XCdlRu-11" edge="1">
          <mxGeometry relative="1" as="geometry" />
        </mxCell>
        <mxCell id="Ro8X-PI6DjRa_9XCdlRu-25" value="采集频率" style="whiteSpace=wrap;html=1;rounded=0;shadow=0;glass=0;strokeColor=#333333;strokeWidth=1.5;fontSize=13;fontColor=#000000;fillColor=none;gradientColor=none;" parent="Ro8X-PI6DjRa_9XCdlRu-29" vertex="1">
          <mxGeometry x="220" y="120" width="90" height="40" as="geometry" />
        </mxCell>
        <mxCell id="Ro8X-PI6DjRa_9XCdlRu-27" style="edgeStyle=orthogonalEdgeStyle;rounded=0;orthogonalLoop=1;jettySize=auto;html=1;entryX=0;entryY=0.5;entryDx=0;entryDy=0;strokeColor=#000000;strokeWidth=2;fontSize=13;fontColor=#000000;" parent="Ro8X-PI6DjRa_9XCdlRu-29" source="Ro8X-PI6DjRa_9XCdlRu-6" target="Ro8X-PI6DjRa_9XCdlRu-25" edge="1">
          <mxGeometry relative="1" as="geometry" />
        </mxCell>
        <mxCell id="Ro8X-PI6DjRa_9XCdlRu-30" value="静态扫描" style="whiteSpace=wrap;html=1;rounded=0;shadow=0;glass=0;strokeColor=#6c8ebf;strokeWidth=1.5;fontSize=13;fillColor=#dae8fc;" parent="1" vertex="1">
          <mxGeometry x="850" y="240" width="100" height="40" as="geometry" />
        </mxCell>
      </root>
    </mxGraphModel>
  </diagram>
  <diagram id="jXopX6Dz04S3zrQbU10f" name="品类生命周期">
    <mxGraphModel dx="1298" dy="834" grid="1" gridSize="10" guides="1" tooltips="1" connect="1" arrows="1" fold="1" page="1" pageScale="1" pageWidth="827" pageHeight="1169" math="0" shadow="0">
      <root>
        <mxCell id="0" />
        <mxCell id="1" parent="0" />
        <mxCell id="c7VwVGQo-81KdOo2bMDM-26" style="edgeStyle=orthogonalEdgeStyle;rounded=0;orthogonalLoop=1;jettySize=auto;html=1;entryX=0.5;entryY=0;entryDx=0;entryDy=0;strokeColor=#000000;strokeWidth=2;fontSize=15;fontColor=#000000;" parent="1" source="c7VwVGQo-81KdOo2bMDM-2" target="c7VwVGQo-81KdOo2bMDM-8" edge="1">
          <mxGeometry relative="1" as="geometry" />
        </mxCell>
        <mxCell id="c7VwVGQo-81KdOo2bMDM-2" value="didCreate" style="whiteSpace=wrap;html=1;rounded=1;shadow=0;glass=0;strokeColor=#333333;strokeWidth=1.5;fontSize=15;fontColor=#000000;fillColor=none;gradientColor=none;" parent="1" vertex="1">
          <mxGeometry x="340" y="130" width="120" height="40" as="geometry" />
        </mxCell>
        <mxCell id="c7VwVGQo-81KdOo2bMDM-24" style="edgeStyle=orthogonalEdgeStyle;rounded=0;orthogonalLoop=1;jettySize=auto;html=1;entryX=0;entryY=0.5;entryDx=0;entryDy=0;strokeColor=#000000;strokeWidth=2;fontSize=15;fontColor=#000000;" parent="1" source="c7VwVGQo-81KdOo2bMDM-3" target="c7VwVGQo-81KdOo2bMDM-2" edge="1">
          <mxGeometry relative="1" as="geometry" />
        </mxCell>
        <mxCell id="c7VwVGQo-81KdOo2bMDM-3" value="Splash" style="whiteSpace=wrap;html=1;rounded=1;shadow=0;glass=0;strokeColor=#333333;strokeWidth=1.5;fontSize=15;fontColor=#000000;fillColor=none;gradientColor=none;" parent="1" vertex="1">
          <mxGeometry x="20" y="290" width="120" height="40" as="geometry" />
        </mxCell>
        <mxCell id="c7VwVGQo-81KdOo2bMDM-6" style="edgeStyle=orthogonalEdgeStyle;rounded=0;orthogonalLoop=1;jettySize=auto;html=1;strokeColor=#000000;strokeWidth=2;fontSize=15;fontColor=#000000;" parent="1" source="c7VwVGQo-81KdOo2bMDM-4" target="c7VwVGQo-81KdOo2bMDM-3" edge="1">
          <mxGeometry relative="1" as="geometry" />
        </mxCell>
        <mxCell id="c7VwVGQo-81KdOo2bMDM-4" value="Download If Needed" style="whiteSpace=wrap;html=1;rounded=1;shadow=0;glass=0;strokeColor=#333333;strokeWidth=1.5;fontSize=15;fontColor=#000000;fillColor=none;gradientColor=none;" parent="1" vertex="1">
          <mxGeometry x="20" y="170" width="120" height="50" as="geometry" />
        </mxCell>
        <mxCell id="c7VwVGQo-81KdOo2bMDM-19" style="edgeStyle=orthogonalEdgeStyle;rounded=0;orthogonalLoop=1;jettySize=auto;html=1;strokeColor=#000000;strokeWidth=2;fontSize=15;fontColor=#000000;" parent="1" source="c7VwVGQo-81KdOo2bMDM-8" target="c7VwVGQo-81KdOo2bMDM-9" edge="1">
          <mxGeometry relative="1" as="geometry" />
        </mxCell>
        <mxCell id="c7VwVGQo-81KdOo2bMDM-8" value="willStartLaunching:options:" style="whiteSpace=wrap;html=1;rounded=1;shadow=0;glass=0;strokeColor=#333333;strokeWidth=1.5;fontSize=15;fontColor=#000000;fillColor=none;gradientColor=none;" parent="1" vertex="1">
          <mxGeometry x="290" y="220" width="220" height="40" as="geometry" />
        </mxCell>
        <mxCell id="c7VwVGQo-81KdOo2bMDM-20" style="edgeStyle=orthogonalEdgeStyle;rounded=0;orthogonalLoop=1;jettySize=auto;html=1;entryX=0.625;entryY=0.2;entryDx=0;entryDy=0;entryPerimeter=0;strokeColor=#000000;strokeWidth=2;fontSize=15;fontColor=#000000;" parent="1" source="c7VwVGQo-81KdOo2bMDM-9" target="c7VwVGQo-81KdOo2bMDM-10" edge="1">
          <mxGeometry relative="1" as="geometry" />
        </mxCell>
        <mxCell id="c7VwVGQo-81KdOo2bMDM-9" value="didFinishLaunching" style="whiteSpace=wrap;html=1;rounded=1;shadow=0;glass=0;strokeColor=#333333;strokeWidth=1.5;fontSize=15;fontColor=#000000;fillColor=none;gradientColor=none;" parent="1" vertex="1">
          <mxGeometry x="295" y="300" width="210" height="40" as="geometry" />
        </mxCell>
        <mxCell id="c7VwVGQo-81KdOo2bMDM-22" style="edgeStyle=orthogonalEdgeStyle;rounded=0;orthogonalLoop=1;jettySize=auto;html=1;entryX=0.5;entryY=0;entryDx=0;entryDy=0;strokeColor=#000000;strokeWidth=2;fontSize=15;fontColor=#000000;" parent="1" source="c7VwVGQo-81KdOo2bMDM-10" target="c7VwVGQo-81KdOo2bMDM-15" edge="1">
          <mxGeometry relative="1" as="geometry" />
        </mxCell>
        <mxCell id="c7VwVGQo-81KdOo2bMDM-25" style="edgeStyle=orthogonalEdgeStyle;rounded=0;orthogonalLoop=1;jettySize=auto;html=1;strokeColor=#000000;strokeWidth=2;fontSize=15;fontColor=#000000;" parent="1" source="c7VwVGQo-81KdOo2bMDM-10" target="c7VwVGQo-81KdOo2bMDM-14" edge="1">
          <mxGeometry relative="1" as="geometry">
            <Array as="points">
              <mxPoint x="385" y="560" />
            </Array>
          </mxGeometry>
        </mxCell>
        <mxCell id="c7VwVGQo-81KdOo2bMDM-10" value="running in Foregorund" style="ellipse;shape=cloud;whiteSpace=wrap;html=1;rounded=0;shadow=0;glass=0;strokeColor=#82b366;strokeWidth=1.5;fontSize=15;fillColor=#d5e8d4;" parent="1" vertex="1">
          <mxGeometry x="325" y="400" width="120" height="80" as="geometry" />
        </mxCell>
        <mxCell id="c7VwVGQo-81KdOo2bMDM-30" style="edgeStyle=orthogonalEdgeStyle;rounded=0;orthogonalLoop=1;jettySize=auto;html=1;strokeColor=#000000;strokeWidth=2;fontSize=15;fontColor=#000000;" parent="1" source="c7VwVGQo-81KdOo2bMDM-11" target="c7VwVGQo-81KdOo2bMDM-10" edge="1">
          <mxGeometry relative="1" as="geometry" />
        </mxCell>
        <mxCell id="c7VwVGQo-81KdOo2bMDM-11" value="willResume" style="whiteSpace=wrap;html=1;rounded=1;shadow=0;glass=0;strokeColor=#333333;strokeWidth=1.5;fontSize=15;fontColor=#000000;fillColor=none;gradientColor=none;" parent="1" vertex="1">
          <mxGeometry x="490" y="420" width="120" height="40" as="geometry" />
        </mxCell>
        <mxCell id="c7VwVGQo-81KdOo2bMDM-29" style="edgeStyle=orthogonalEdgeStyle;rounded=0;orthogonalLoop=1;jettySize=auto;html=1;entryX=1;entryY=0.5;entryDx=0;entryDy=0;strokeColor=#000000;strokeWidth=2;fontSize=15;fontColor=#000000;" parent="1" source="c7VwVGQo-81KdOo2bMDM-12" target="c7VwVGQo-81KdOo2bMDM-11" edge="1">
          <mxGeometry relative="1" as="geometry" />
        </mxCell>
        <mxCell id="c7VwVGQo-81KdOo2bMDM-12" value="Reactivate" style="whiteSpace=wrap;html=1;rounded=1;shadow=0;glass=0;strokeColor=#333333;strokeWidth=1.5;fontSize=15;fontColor=#000000;fillColor=none;gradientColor=none;" parent="1" vertex="1">
          <mxGeometry x="660" y="420" width="120" height="40" as="geometry" />
        </mxCell>
        <mxCell id="c7VwVGQo-81KdOo2bMDM-28" style="edgeStyle=orthogonalEdgeStyle;rounded=0;orthogonalLoop=1;jettySize=auto;html=1;entryX=0.5;entryY=1;entryDx=0;entryDy=0;strokeColor=#000000;strokeWidth=2;fontSize=15;fontColor=#000000;" parent="1" source="c7VwVGQo-81KdOo2bMDM-13" target="c7VwVGQo-81KdOo2bMDM-12" edge="1">
          <mxGeometry relative="1" as="geometry" />
        </mxCell>
        <mxCell id="c7VwVGQo-81KdOo2bMDM-13" value="willPause" style="whiteSpace=wrap;html=1;rounded=1;shadow=0;glass=0;strokeColor=#333333;strokeWidth=1.5;fontSize=15;fontColor=#000000;fillColor=none;gradientColor=none;" parent="1" vertex="1">
          <mxGeometry x="660" y="525" width="120" height="40" as="geometry" />
        </mxCell>
        <mxCell id="c7VwVGQo-81KdOo2bMDM-27" style="edgeStyle=orthogonalEdgeStyle;rounded=0;orthogonalLoop=1;jettySize=auto;html=1;entryX=0;entryY=0.5;entryDx=0;entryDy=0;strokeColor=#000000;strokeWidth=2;fontSize=15;fontColor=#000000;" parent="1" source="c7VwVGQo-81KdOo2bMDM-14" target="c7VwVGQo-81KdOo2bMDM-13" edge="1">
          <mxGeometry relative="1" as="geometry" />
        </mxCell>
        <mxCell id="c7VwVGQo-81KdOo2bMDM-14" value="put to Background" style="ellipse;shape=cloud;whiteSpace=wrap;html=1;rounded=0;shadow=0;glass=0;strokeColor=#666666;strokeWidth=1.5;fontSize=15;fillColor=#f5f5f5;fontColor=#333333;" parent="1" vertex="1">
          <mxGeometry x="470" y="505" width="120" height="80" as="geometry" />
        </mxCell>
        <mxCell id="c7VwVGQo-81KdOo2bMDM-15" value="willTerminate:" style="whiteSpace=wrap;html=1;rounded=1;shadow=0;glass=0;strokeColor=#333333;strokeWidth=1.5;fontSize=15;fontColor=#000000;fillColor=none;gradientColor=none;" parent="1" vertex="1">
          <mxGeometry x="325" y="630" width="120" height="40" as="geometry" />
        </mxCell>
        <mxCell id="c7VwVGQo-81KdOo2bMDM-23" style="edgeStyle=orthogonalEdgeStyle;rounded=0;orthogonalLoop=1;jettySize=auto;html=1;strokeColor=#000000;strokeWidth=2;fontSize=15;fontColor=#000000;" parent="1" source="c7VwVGQo-81KdOo2bMDM-16" target="c7VwVGQo-81KdOo2bMDM-4" edge="1">
          <mxGeometry relative="1" as="geometry" />
        </mxCell>
        <mxCell id="c7VwVGQo-81KdOo2bMDM-16" value="Request Launching" style="ellipse;shape=cloud;whiteSpace=wrap;html=1;rounded=0;shadow=0;glass=0;strokeColor=#82b366;strokeWidth=1.5;fontSize=15;fillColor=#d5e8d4;" parent="1" vertex="1">
          <mxGeometry x="20" y="50" width="120" height="80" as="geometry" />
        </mxCell>
      </root>
    </mxGraphModel>
  </diagram>
</mxfile>
